<svg id="sunset" enable-background="new 0 0 300 300" height="512" viewBox="0 0 300 300" width="512" xmlns="http://www.w3.org/2000/svg"><g><circle cx="150" cy="184" fill="#efefd2" r="92"/><g><circle cx="150" cy="192" fill="#fc8c29" r="68"/><path d="m150 264c-39.699 0-72-32.301-72-72s32.301-72 72-72 72 32.301 72 72-32.301 72-72 72zm0-136c-35.289 0-64 28.711-64 64s28.711 64 64 64 64-28.711 64-64-28.711-64-64-64z" fill="#4c241d"/></g><path d="m104.645 163.141c-.812 0-1.637-.246-2.348-.762-1.785-1.301-2.184-3.801-.887-5.59 7.555-10.402 18.438-18.238 30.645-22.059 2.117-.668 4.352.512 5.012 2.621s-.512 4.352-2.621 5.012c-10.578 3.312-20.008 10.105-26.559 19.129-.785 1.078-2.004 1.649-3.242 1.649z" fill="#fff"/><path d="m150 116c-2.211 0-4-1.789-4-4v-8c0-2.211 1.789-4 4-4s4 1.789 4 4v8c0 2.211-1.789 4-4 4z" fill="#4c241d"/><path d="m70 196h-8c-2.211 0-4-1.789-4-4s1.789-4 4-4h8c2.211 0 4 1.789 4 4s-1.789 4-4 4z" fill="#4c241d"/><path d="m238 196h-8c-2.211 0-4-1.789-4-4s1.789-4 4-4h8c2.211 0 4 1.789 4 4s-1.789 4-4 4z" fill="#4c241d"/><path d="m206.57 139.43c-1.023 0-2.047-.391-2.828-1.172-1.562-1.562-1.562-4.094 0-5.656l5.656-5.656c1.562-1.562 4.094-1.562 5.656 0s1.562 4.094 0 5.656l-5.656 5.656c-.781.781-1.804 1.172-2.828 1.172z" fill="#4c241d"/><path d="m93.43 139.43c-1.023 0-2.047-.391-2.828-1.172l-5.656-5.656c-1.562-1.562-1.562-4.094 0-5.656s4.094-1.562 5.656 0l5.656 5.656c1.562 1.562 1.562 4.094 0 5.656-.781.781-1.805 1.172-2.828 1.172z" fill="#4c241d"/><g><path d="m26 268v-.737c0-21.684 17.579-39.263 39.263-39.263h169.474c21.684 0 39.263 17.579 39.263 39.263v.737" fill="#6b4f5b"/><path d="m274 272c-2.211 0-4-1.789-4-4v-.738c0-19.442-15.82-35.262-35.262-35.262h-169.476c-19.442 0-35.262 15.82-35.262 35.262v.738c0 2.211-1.789 4-4 4s-4-1.789-4-4v-.738c0-23.856 19.406-43.262 43.262-43.262h169.477c23.855 0 43.261 19.406 43.261 43.262v.738c0 2.211-1.789 4-4 4z" fill="#4c241d"/></g><g><path d="m150 84 20-20-12-4v-32h-16v32l-12 4z" fill="#e86436"/><path d="m150 88c-1.023 0-2.047-.391-2.828-1.172l-20-20c-.98-.98-1.383-2.398-1.066-3.746.32-1.352 1.312-2.438 2.629-2.875l9.266-3.09v-29.117c0-2.209 1.789-4 4-4h16c2.211 0 4 1.791 4 4v29.117l9.266 3.09c1.316.438 2.309 1.523 2.629 2.875.316 1.348-.086 2.766-1.066 3.746l-20 20c-.783.781-1.807 1.172-2.83 1.172zm-12.594-22.25 12.594 12.594 12.594-12.594-5.859-1.957c-1.633-.543-2.735-2.07-2.735-3.793v-28h-8v28c0 1.723-1.102 3.25-2.734 3.793z" fill="#4c241d"/></g><g fill="#4c241d"><path d="m266 248h-16c-2.211 0-4-1.789-4-4s1.789-4 4-4h16c2.211 0 4 1.789 4 4s-1.789 4-4 4z"/><path d="m62 264h-32c-2.211 0-4-1.789-4-4s1.789-4 4-4h32c2.211 0 4 1.789 4 4s-1.789 4-4 4z"/><path d="m102 264h-16c-2.211 0-4-1.789-4-4s1.789-4 4-4h16c2.211 0 4 1.789 4 4s-1.789 4-4 4z"/><path d="m150 252h-44c-2.211 0-4-1.789-4-4s1.789-4 4-4h44c2.211 0 4 1.789 4 4s-1.789 4-4 4z"/><path d="m214 244h-20c-2.211 0-4-1.789-4-4s1.789-4 4-4h20c2.211 0 4 1.789 4 4s-1.789 4-4 4z"/><path d="m230 260h-52c-2.211 0-4-1.789-4-4s1.789-4 4-4h52c2.211 0 4 1.789 4 4s-1.789 4-4 4z"/></g></g></svg>