<?xml version="1.0" encoding="iso-8859-1"?>
<!-- Generator: Adobe Illustrator 19.0.0, SVG Export Plug-In . SVG Version: 6.00 Build 0)  -->
<svg version="1.1" id="Capa_1" xmlns="http://www.w3.org/2000/svg" xmlns:xlink="http://www.w3.org/1999/xlink" x="0px" y="0px"
	 viewBox="0 0 480.098 480.098" style="enable-background:new 0 0 480.098 480.098;" xml:space="preserve">
<g>
	<path style="fill:#DEDEDE;" d="M8.049,480c-4.418,0-8-3.582-8-8v-88c0.002-1.58,0.47-3.124,1.344-4.44l14.656-21.96V328
		c0-4.418,3.582-8,8-8s8,3.582,8,8v32c-0.002,1.58-0.47,3.124-1.344,4.44L16.049,386.4V472C16.049,476.418,12.467,480,8.049,480z"/>
	<path style="fill:#DEDEDE;" d="M472.049,480c-4.418,0-8-3.582-8-8v-85.6l-14.656-21.984c-0.87-1.309-1.337-2.844-1.344-4.416v-64
		c0-4.418,3.582-8,8-8s8,3.582,8,8v61.6l14.656,21.984c0.87,1.309,1.337,2.844,1.344,4.416v88
		C480.049,476.418,476.467,480,472.049,480z"/>
</g>
<path style="fill:#4398D1;" d="M112.049,200h40v32h0.456c16.085-13.538,35.102-23.144,55.544-28.056V168h-96V200z"/>
<g>
	<path style="fill:#DEDEDE;" d="M112.049,136h96v32h-96V136z"/>
	<path style="fill:#DEDEDE;" d="M272.049,160h-64v16h24v24h16v-24h24V160z"/>
	<path style="fill:#DEDEDE;" d="M272.049,136h96v32h-96V136z"/>
</g>
<path style="fill:#4398D1;" d="M272.049,203.944c20.442,4.912,39.459,14.518,55.544,28.056h0.456v-32h40v-32h-96V203.944z"/>
<g>
	<path style="fill:#DEDEDE;" d="M96.049,0h16v24h-16V0z"/>
	<path style="fill:#DEDEDE;" d="M8.049,128c-4.418,0.001-8.001-3.58-8.002-7.998c-0.001-3.23,1.941-6.143,4.922-7.386l91.08-37.952
		V56c0-4.418,3.582-8,8-8s8,3.582,8,8v24c0,3.229-1.94,6.141-4.92,7.384l-96,40C10.153,127.793,9.106,128.002,8.049,128z"/>
	<path style="fill:#DEDEDE;" d="M64.049,96h16v320h-16V96z"/>
	<path style="fill:#DEDEDE;" d="M136.049,480c-2.122,0-4.156-0.844-5.656-2.344l-58.344-58.344l-58.344,58.344
		c-3.178,3.07-8.242,2.982-11.312-0.196c-2.994-3.1-2.994-8.016,0-11.116l64-64c3.124-3.123,8.188-3.123,11.312,0l64,64
		c3.124,3.125,3.123,8.19-0.002,11.314C140.203,479.157,138.169,480,136.049,480L136.049,480z"/>
</g>
<path style="fill:#FDB62F;" d="M72.049,24h64c17.673,0,32,14.327,32,32l0,0h-128l0,0C40.049,38.327,54.375,24,72.049,24z"/>
<path style="fill:#FFA83D;" d="M136.049,24h-32c17.673,0,32,14.327,32,32h32C168.049,38.327,153.722,24,136.049,24z"/>
<g>
	<path style="fill:#DEDEDE;" d="M368.049,0h16v24h-16V0z"/>
	<path style="fill:#DEDEDE;" d="M472.049,128c-1.057,0.002-2.105-0.207-3.08-0.616l-96-40c-2.98-1.243-4.92-4.155-4.92-7.384V56
		c0-4.418,3.582-8,8-8s8,3.582,8,8v18.664l91.08,37.952c4.078,1.7,6.006,6.384,4.306,10.462
		C478.191,126.059,475.278,128.001,472.049,128L472.049,128z"/>
	<path style="fill:#DEDEDE;" d="M400.049,96h16v320h-16V96z"/>
	<path style="fill:#DEDEDE;" d="M472.049,480c-2.122,0-4.156-0.844-5.656-2.344l-58.344-58.344l-58.344,58.344
		c-3.178,3.07-8.242,2.982-11.312-0.196c-2.995-3.1-2.995-8.016,0-11.116l64-64c3.124-3.123,8.188-3.123,11.312,0l64,64
		c3.124,3.125,3.123,8.19-0.002,11.314C476.203,479.157,474.169,480,472.049,480z"/>
</g>
<path style="fill:#FDB62F;" d="M440.049,56h-128l0,0c0-17.673,14.327-32,32-32h64C425.722,24,440.049,38.327,440.049,56L440.049,56z
	"/>
<path style="fill:#4398D1;" d="M16.049,328h88.4c2.127-37.033,19.329-71.578,47.6-95.592V232h-136V328z"/>
<path style="fill:#DEDEDE;" d="M16.049,200h136v32h-136V200z"/>
<path style="fill:#4398D1;" d="M328.049,232.408c19.771,16.764,34.343,38.827,42,63.592h94v-64h-136V232.408z"/>
<g>
	<path style="fill:#DEDEDE;" d="M328.049,200h136v32h-136V200z"/>
	<path style="fill:#DEDEDE;" d="M72.049,480c-4.418-0.001-7.999-3.583-7.998-8.002c0-2.121,0.843-4.154,2.342-5.654l64-64
		c3.178-3.069,8.243-2.982,11.312,0.196c2.994,3.1,2.994,8.015,0,11.116l-64,64C76.205,479.156,74.17,480,72.049,480z"/>
	<path style="fill:#DEDEDE;" d="M408.049,480c-2.122,0-4.156-0.844-5.656-2.344l-61.656-64c-3.07-3.178-2.982-8.242,0.196-11.312
		c3.1-2.995,8.016-2.995,11.116,0l61.656,64c3.124,3.125,3.123,8.19-0.002,11.314C412.203,479.157,410.169,480,408.049,480z"/>
	<path style="fill:#DEDEDE;" d="M312.049,480c-4.418,0-8-3.582-8-8v-32c0-4.418,3.582-8,8-8s8,3.582,8,8v32
		C320.049,476.418,316.467,480,312.049,480z"/>
	<path style="fill:#DEDEDE;" d="M168.049,480c-4.418,0-8-3.582-8-8v-32c0-4.418,3.582-8,8-8s8,3.582,8,8v32
		C176.049,476.418,172.467,480,168.049,480z"/>
</g>
<circle style="fill:#4398D1;" cx="240.049" cy="336" r="136"/>
<path style="fill:#3E8CC7;" d="M152.049,232.408V232h-22.904c-24.561,26.136-38.997,60.175-40.712,96h16
	C106.563,290.965,123.771,256.419,152.049,232.408L152.049,232.408z"/>
<path style="fill:#CFCFCF;" d="M129.145,232h22.904v-20C143.765,217.884,136.092,224.585,129.145,232L129.145,232z"/>
<path style="fill:#3E8CC7;" d="M328.049,232v0.408c19.771,16.764,34.343,38.827,42,63.592h15.68
	c-6.469-23.942-18.734-45.922-35.712-64H328.049z"/>
<path style="fill:#CFCFCF;" d="M350.017,232c-6.683-7.133-14.04-13.603-21.968-19.32V232H350.017z"/>
<path style="fill:#FFA83D;" d="M408.049,24h-32c17.673,0,32,14.327,32,32h32C440.049,38.327,425.722,24,408.049,24z"/>
<g>
	<path style="fill:#CFCFCF;" d="M96.049,56h16v16h-16V56z"/>
	<path style="fill:#CFCFCF;" d="M368.049,56h16v16h-16V56z"/>
	<path style="fill:#CFCFCF;" d="M208.049,160h16v16h-16V160z"/>
	<path style="fill:#CFCFCF;" d="M256.049,160h16v16h-16V160z"/>
</g>
<path style="fill:#3E8CC7;" d="M353.097,260.408c-38.568,101.248-142.728,146.128-214.888,165.52
	c49.693,56.27,135.593,61.601,191.862,11.908C381.074,392.794,390.913,316.977,353.097,260.408L353.097,260.408z"/>
<circle style="fill:#CFCFCF;" cx="240.049" cy="336" r="104"/>
<circle style="fill:#DEDEDE;" cx="240.049" cy="336" r="88"/>
<g>
	<path style="fill:#CFCFCF;" d="M180.209,400.392c35.483,33.115,91.092,31.195,124.207-4.288
		c25.027-26.817,30.765-66.359,14.393-99.184C284.47,344.962,236.03,381.126,180.209,400.392L180.209,400.392z"/>
	<path style="fill:#CFCFCF;" d="M440.049,200h24v32h-24V200z"/>
</g>
<path style="fill:#3E8CC7;" d="M440.049,232h24v64h-24V232z"/>
<g>
	<path style="fill:#CFCFCF;" d="M16.049,328h16v16h-16V328z"/>
	<path style="fill:#CFCFCF;" d="M64.049,328h16v16h-16V328z"/>
	<path style="fill:#CFCFCF;" d="M400.049,296h16v16h-16V296z"/>
	<path style="fill:#CFCFCF;" d="M448.049,296h16v16h-16V296z"/>
</g>
<path d="M240.049,224c-61.856,0-112,50.144-112,112s50.144,112,112,112s112-50.144,112-112
	C351.982,274.172,301.877,224.066,240.049,224z M240.049,432c-53.019,0-96-42.981-96-96s42.981-96,96-96s96,42.981,96,96
	C335.991,388.996,293.044,431.943,240.049,432z"/>
<path d="M468.969,127.384c4.078,1.701,8.763-0.226,10.464-4.304c1.701-4.078-0.226-8.763-4.304-10.464l-91.08-37.952V64h56
	c4.418,0,8-3.582,8-8c-0.026-22.08-17.92-39.974-40-40h-24V0h-16v16h-24c-22.08,0.026-39.974,17.92-40,40c0,4.418,3.582,8,8,8h56v16
	c0,3.229,1.94,6.141,4.92,7.384l27.08,11.28V192h-24v-56c0-4.418-3.582-8-8-8h-96c-4.418,0-8,3.582-8,8v24h-48v-24
	c0-4.418-3.582-8-8-8h-96c-4.418,0-8,3.582-8,8v56h-24V98.664l27.08-11.28c2.98-1.243,4.92-4.155,4.92-7.384V64h56
	c4.418,0,8-3.582,8-8c-0.026-22.08-17.92-39.974-40-40h-24V0h-16v16h-24c-22.08,0.026-39.974,17.92-40,40c0,4.418,3.582,8,8,8h56
	v10.664l-91.08,37.952c-4.078,1.701-6.005,6.386-4.304,10.464c1.701,4.078,6.386,6.005,10.464,4.304l52.92-22.048V192h-40
	c-4.418,0-8,3.582-8,8v157.6L1.393,379.56c-0.874,1.316-1.342,2.86-1.344,4.44v80c0.039,1.421,0.465,2.804,1.232,4
	c-1.862,3.079-1.405,7.028,1.112,9.6c3.124,3.123,8.188,3.123,11.312,0l58.344-58.288L92.737,440l-26.344,26.344
	c-3.178,3.07-3.266,8.134-0.196,11.312c3.07,3.178,8.134,3.266,11.312,0.196c0.067-0.064,0.132-0.13,0.196-0.196l26.344-26.344
	l26.344,26.344c3.178,3.069,8.243,2.982,11.312-0.196c2.994-3.1,2.994-8.015,0-11.116L115.361,440l13.12-13.12
	c9.061,11.112,19.721,20.818,31.632,28.8c0,0.112-0.064,0.2-0.064,0.312v16c0,4.418,3.582,8,8,8s8-3.582,8-8v-7.2
	c40.262,20.257,87.738,20.257,128,0V472c0,4.418,3.582,8,8,8s8-3.582,8-8v-16c0-0.112-0.056-0.2-0.064-0.312
	c11.911-7.982,22.571-17.688,31.632-28.8L364.737,440l-26.344,26.344c-3.07,3.178-2.982,8.242,0.196,11.312
	c3.1,2.995,8.016,2.995,11.116,0l26.344-26.344l26.344,26.344c3.178,3.07,8.242,2.982,11.312-0.196c2.995-3.1,2.995-8.016,0-11.116
	L387.361,440l20.688-20.688l58.336,58.336c3.12,3.128,8.186,3.135,11.314,0.014c1.504-1.5,2.35-3.538,2.35-5.662v-88
	c-0.003-1.58-0.47-3.124-1.344-4.44l-14.656-21.96V200c0-4.418-3.582-8-8-8h-40v-86.664L468.969,127.384z M344.049,32h64
	c10.168,0.012,19.229,6.418,22.632,16H321.417C324.819,38.418,333.881,32.012,344.049,32L344.049,32z M72.049,32h64
	c10.168,0.012,19.229,6.418,22.632,16H49.417C52.819,38.418,61.881,32.012,72.049,32z M464.049,452.688l-48-48V304h32v56
	c0.003,1.58,0.47,3.124,1.344,4.44l14.656,21.96V452.688z M448.049,288h-32v-48h32V288z M400.049,288h-24.216
	c-2.414-6.753-5.331-13.316-8.728-19.632c-0.328-0.616-0.664-1.224-1-1.832c-4.082-7.382-8.809-14.388-14.128-20.936
	c-0.544-0.664-1.072-1.328-1.6-1.992c-1.024-1.216-2.064-2.4-3.136-3.6h52.808V288z M336.049,224v-16h64v16H336.049z M328.049,192
	c-4.418,0-8,3.582-8,8v16.352c-0.128-0.088-0.264-0.152-0.384-0.24c-3.056-2.016-6.187-3.917-9.392-5.704
	c-2.328-1.312-4.736-2.472-7.144-3.656c-1.128-0.552-2.248-1.12-3.4-1.64c-2.704-1.24-5.448-2.4-8.232-3.448
	c-0.752-0.288-1.504-0.552-2.264-0.8c-3.024-1.112-6.064-2.168-9.184-3.072V176h80v16H328.049z M248.049,192.408V176h16v18.168
	C258.753,193.28,253.411,192.693,248.049,192.408z M216.049,176h16v16.408c-5.362,0.285-10.704,0.872-16,1.76V176z M360.049,144v16
	h-80v-16H360.049z M200.049,144v16h-80v-16H200.049z M120.049,176h80v21.768c-3.12,0.904-6.16,1.96-9.192,3.072
	c-0.752,0.272-1.504,0.536-2.256,0.8c-2.784,1.072-5.528,2.208-8.232,3.448c-1.144,0.52-2.272,1.088-3.4,1.64
	c-2.4,1.176-4.8,2.344-7.144,3.656c-3.2,1.787-6.328,3.688-9.384,5.704c-0.128,0.088-0.264,0.152-0.392,0.24V200
	c0-4.418-3.582-8-8-8h-32L120.049,176z M126.985,247.112c-0.704,0.904-1.368,1.832-2.056,2.752c-2.136,2.84-4.184,5.736-6.112,8.736
	c-0.12,0.184-0.224,0.376-0.344,0.568C106.766,277.542,99.419,298.35,96.993,320H80.049v-80h52.944
	c-0.152,0.168-0.28,0.336-0.424,0.504C130.649,242.656,128.777,244.8,126.985,247.112L126.985,247.112z M32.049,240h32v80h-32V240z
	 M112.049,208h32v16h-64v-16H112.049z M64.049,208v16h-32v-16H64.049z M30.705,364.44c0.874-1.316,1.342-2.86,1.344-4.44v-24h32
	v68.688l-48,48V386.4L30.705,364.44z M104.049,428.688l-24-24V336h16c-0.002,27.58,7.975,54.571,22.968,77.72L104.049,428.688z
	 M240.049,464c-70.658-0.084-127.916-57.342-128-128c0-2.528,0.232-4.992,0.376-7.488v-0.04c0.256-4.368,0.723-8.677,1.4-12.928
	v-0.192c0.624-3.92,1.472-7.776,2.448-11.584c0.152-0.576,0.288-1.16,0.448-1.736c0.864-3.2,1.904-6.32,3.016-9.424
	c0.416-1.152,0.8-2.312,1.264-3.448c0.968-2.48,2.064-4.896,3.2-7.304c0.744-1.6,1.48-3.2,2.288-4.752
	c1.016-1.952,2.128-3.856,3.248-5.76c1.048-1.784,2.096-3.576,3.2-5.304s2.4-3.416,3.592-5.096s2.448-3.384,3.752-5.008
	c1.472-1.824,3.048-3.568,4.616-5.312c1.192-1.32,2.344-2.672,3.592-3.944c2.04-2.088,4.208-4.064,6.4-6.024
	c1.064-0.952,2.072-1.968,3.2-2.88c3.562-2.987,7.288-5.772,11.16-8.344c0.288-0.192,0.6-0.344,0.888-0.536
	c3.738-2.432,7.599-4.67,11.568-6.704c0.464-0.232,0.936-0.44,1.4-0.672c3.941-1.964,7.981-3.721,12.104-5.264l1.08-0.4
	c28.241-10.307,59.215-10.307,87.456,0l1.08,0.4c4.125,1.545,8.168,3.302,12.112,5.264c0.456,0.232,0.928,0.44,1.392,0.672
	c3.969,2.034,7.83,4.272,11.568,6.704c0.288,0.192,0.6,0.344,0.888,0.536c3.886,2.57,7.625,5.356,11.2,8.344
	c2.768,2.315,5.435,4.736,8,7.264c0.72,0.712,1.384,1.472,2.088,2.2c1.92,1.992,3.792,4,5.6,6.136
	c0.728,0.864,1.44,1.728,2.144,2.608c1.936,2.4,3.792,4.864,5.544,7.408c0.344,0.488,0.712,0.968,1.048,1.464
	c2.133,3.152,4.107,6.397,5.92,9.736c0.296,0.536,0.56,1.096,0.848,1.64c1.488,2.8,2.864,5.672,4.152,8.6
	c0.368,0.856,0.744,1.704,1.096,2.568c1.344,3.248,2.568,6.544,3.64,9.912c0.088,0.28,0.192,0.536,0.28,0.8
	c20.925,67.525-16.851,139.227-84.376,160.152C265.688,462.069,252.905,464.003,240.049,464L240.049,464z M361.081,413.72
	c21.086-32.427,28.04-72.05,19.256-109.72h19.712v100.688l-24,24L361.081,413.72z M448.049,208v16h-32v-16H448.049z"/>
<g>
</g>
<g>
</g>
<g>
</g>
<g>
</g>
<g>
</g>
<g>
</g>
<g>
</g>
<g>
</g>
<g>
</g>
<g>
</g>
<g>
</g>
<g>
</g>
<g>
</g>
<g>
</g>
<g>
</g>
</svg>
