<svg id="Layer_1" enable-background="new 0 0 512 512" height="512" viewBox="0 0 512 512" width="512" xmlns="http://www.w3.org/2000/svg"><g><g><g><path d="m504.601 35.073v281.67c0 15.29-12.39 27.68-27.68 27.68h-441.64c-15.29 0-27.68-12.39-27.68-27.68v-281.67c0-15.29 12.39-27.69 27.68-27.69h441.64c15.29 0 27.68 12.4 27.68 27.69z" fill="#555760"/><path d="m504.601 35.073v281.67c0 15.29-12.39 27.68-27.68 27.68h-29.98c15.29 0 27.68-12.39 27.68-27.68v-281.67c0-15.29-12.39-27.69-27.68-27.69h29.98c15.29 0 27.68 12.4 27.68 27.69z" fill="#36383f"/><path d="m37.577 37.387h437.048v277.036h-437.048z" fill="#52deff"/><path d="m443.3 37.387h31.325v277.036h-31.325z" fill="#55baff"/></g></g><g><path d="m424.078 487.528c-5.9 6.62-13.04 11.53-21.31 14.2-9.04 2.93-18.56 2.91-28.04.38-21.59-5.77-42.99-24.61-58.13-51.53-5.54 3.08-11.93 4.82-18.7 4.82-10.84 0-20.64-4.46-27.67-11.65-1.87-1.92-4.07-3.44-6.46-4.49-2.4-1.05-4.99-1.62-7.67-1.62-5.35 0-10.39 2.28-14.13 6.11-7.02 7.19-16.82 11.65-27.66 11.65-6.78 0-13.16-1.74-18.7-4.82-21.79 38.75-56.57 60.74-86.18 51.15-8.26-2.67-15.41-7.58-21.31-14.2-12.64-14.19-19.61-36.32-19.61-61.58 0-15.12 2.5-31.37 7.77-47.71 15.9-49.27 51.77-83.07 84.92-82.94h190c2.09 0 4.19.13 6.3.4 31.24 3.93 63.55 36.47 78.42 82.54 14.08 43.63 8.38 86.6-11.84 109.29z" fill="#eef6ff"/><path d="m435.918 378.238c14.08 43.63 8.38 86.6-11.84 109.29-5.9 6.62-13.04 11.53-21.31 14.2-9.04 2.93-18.56 2.91-28.04.38 8.24-2.67 15.36-7.58 21.25-14.18 20.22-22.69 25.92-65.66 11.84-109.28-15.87-49.19-51.62-82.95-84.72-82.95h34.4c31.24 3.93 63.55 36.47 78.42 82.54z" fill="#dae6ef"/><g><path d="m224.738 420.458c-5.87 6.3-15.15 7.53-22.32 3.46-1.23-.69-2.39-1.54-3.47-2.54-7.38-6.87-7.79-18.43-.93-25.82 1.32-1.42 2.8-2.58 4.4-3.48 6.74-3.8 15.43-3.01 21.39 2.55 7.38 6.87 7.8 18.44.93 25.83z" fill="#555760"/><path d="m224.738 420.458c-5.87 6.3-15.15 7.53-22.32 3.46 1.6-.89 3.08-2.05 4.39-3.46 6.87-7.39 6.45-18.96-.92-25.83-1.08-1-2.24-1.85-3.47-2.55 6.74-3.8 15.43-3.01 21.39 2.55 7.38 6.87 7.8 18.44.93 25.83z" fill="#36383f"/></g><g><path d="m313.978 420.458c-5.87 6.3-15.15 7.53-22.32 3.46-1.23-.69-2.39-1.54-3.47-2.54-7.38-6.87-7.79-18.43-.93-25.82 1.32-1.42 2.8-2.58 4.4-3.48 6.74-3.8 15.43-3.01 21.39 2.55 7.38 6.87 7.8 18.44.93 25.83z" fill="#555760"/><path d="m313.978 420.458c-5.87 6.3-15.15 7.53-22.32 3.46 1.6-.89 3.08-2.05 4.39-3.46 6.87-7.39 6.45-18.96-.92-25.83-1.08-1-2.24-1.85-3.47-2.55 6.74-3.8 15.43-3.01 21.39 2.55 7.38 6.87 7.8 18.44.93 25.83z" fill="#36383f"/></g><path d="m319.351 295.299-20 56.658h-86.702l-20-56.658z" fill="#a8b3ba"/><path d="m293.431 295.299-20 56.658h25.92l20-56.658z" fill="#879299"/><g><path d="m208.088 207.668c-12.74 17.2-33.11 28.39-56.1 28.54-.17.01-.33.01-.49.01-38.89 0-70.41-31.57-70.41-70.51 0-38.95 31.52-70.51 70.41-70.51.14 0 .29 0 .43.01 21.94.12 41.5 10.29 54.32 26.16l-42.17 42.23z" fill="#fff148"/><path d="m208.088 207.668c-12.74 17.2-33.11 28.39-56.1 28.54 10.37-.58 27.76-19.25 27.76-28.62l-29.82-29.86c-7.8-7.81-7.8-20.46 0-28.26l27.22-27.27c0-6.95-15.97-26.38-25.22-26.99 21.94.12 41.5 10.29 54.32 26.16l-42.17 42.23z" fill="#ffcf4a"/><path d="m403.138 211.408c0 13.48-10.93 24.81-24.82 24.81-2.15 0-4.24-.27-6.22-.79-11.91-3.06-20.18-14.74-18.36-27.57l5.98-42.15h37.2l5.97 42.15c.17 1.2.25 2.38.25 3.55z" fill="#eef6ff"/><path d="m403.138 211.408c0 13.48-10.93 24.81-24.82 24.81-2.15 0-4.24-.27-6.22-.79 6.51-2.8 11.21-12.64 11.21-24.01 0-1.17-.05-2.36-.15-3.56l-3.61-42.15h17.37l5.97 42.15c.17 1.2.25 2.38.25 3.55z" fill="#dae6ef"/><path d="m426.918 165.708h-97.2l4.57-32.25c2.82-19.88 18.47-35.13 37.85-37.83 2.02-.28 4.09-.43 6.18-.43 22.14 0 40.91 16.31 44.02 38.26z" fill="#ff455c"/><path d="m426.918 165.708h-28.6l-2.83-32.25c-1.74-19.88-11.4-35.13-23.35-37.83 2.02-.28 4.09-.43 6.18-.43 22.14 0 40.91 16.31 44.02 38.26z" fill="#e51c5f"/></g></g></g><g><path d="m504.5 124.295c-4.142 0-7.5 3.357-7.5 7.5v185.473c0 11.152-9.054 20.225-20.184 20.225h-52.193c-3.446-5.35-7.161-10.389-11.104-15.045h61.004c4.142 0 7.5-3.357 7.5-7.5v-277.404c0-4.142-3.358-7.5-7.5-7.5h-340.035c-4.142 0-7.5 3.357-7.5 7.5s3.358 7.5 7.5 7.5h332.536v262.404h-68.617c-15.12-12.443-31.76-19.156-47.503-19.124h-78.359c-4.142 0-7.5 3.357-7.5 7.5s3.358 7.5 7.5 7.5h36.103l-14.705 41.657h-76.09l-14.705-41.657h34.305c4.142 0 7.5-3.357 7.5-7.5s-3.358-7.5-7.5-7.5h-76.545c-15.731 0-32.273 6.73-47.319 19.124h-68.613v-262.404h54.217c4.142 0 7.5-3.357 7.5-7.5s-3.358-7.5-7.5-7.5h-61.717c-4.142 0-7.5 3.357-7.5 7.5v277.404c0 4.142 3.358 7.5 7.5 7.5h61.004c-3.943 4.656-7.658 9.694-11.104 15.045h-52.192c-11.13 0-20.184-9.073-20.184-20.225v-282.044c0-11.152 9.054-20.224 20.184-20.224h441.431c11.129 0 20.184 9.072 20.184 20.224v61.909c0 4.142 3.358 7.5 7.5 7.5s7.5-3.357 7.5-7.5v-61.909c-.001-19.423-15.784-35.224-35.185-35.224h-441.43c-19.401 0-35.184 15.801-35.184 35.224v282.044c0 19.423 15.783 35.225 35.184 35.225h43.652c-3.818 7.62-7.114 15.662-9.795 23.971-14.612 45.291-9.361 91.049 13.378 116.574 6.972 7.825 15.249 13.327 24.601 16.351 31.022 10.041 67.174-9.436 91.531-48.697 4.995 1.796 10.301 2.728 15.652 2.728 12.541 0 24.271-4.941 33.031-13.914 2.42-2.478 5.533-3.844 8.765-3.844s6.344 1.365 8.764 3.843c8.761 8.973 20.492 13.915 33.032 13.915 5.352 0 10.658-.933 15.652-2.728 20.092 32.387 48.208 51.31 74.85 51.308 5.656 0 11.248-.853 16.679-2.611 9.354-3.024 17.631-8.526 24.603-16.351 22.739-25.525 27.991-71.283 13.378-116.574-2.681-8.309-5.977-16.352-9.795-23.971h43.652c19.4 0 35.184-15.801 35.184-35.225v-185.473c.002-4.142-3.356-7.5-7.498-7.5zm-86.12 358.764c-5.174 5.807-11.236 9.865-18.02 12.058-25.151 8.148-56.957-11.468-77.33-47.689-2.022-3.596-6.565-4.885-10.173-2.883-4.573 2.535-9.781 3.875-15.061 3.875-8.466 0-16.385-3.336-22.3-9.394-5.267-5.393-12.19-8.363-19.496-8.363s-14.229 2.97-19.497 8.364c-5.914 6.057-13.833 9.393-22.299 9.393-5.28 0-10.488-1.34-15.061-3.875-3.608-2.001-8.152-.711-10.173 2.883-20.374 36.221-52.173 55.834-77.332 47.689-6.782-2.193-12.844-6.251-18.018-12.058-18.973-21.296-23.114-62.283-10.303-101.99 14.548-45.088 47.152-77.744 77.612-77.744h26.313l18.234 51.653c1.059 2.999 3.893 5.004 7.072 5.004h86.702c3.18 0 6.014-2.005 7.072-5.004l18.234-51.653h26.545c30.429 0 63.036 32.659 77.583 77.744 12.81 39.707 8.67 80.693-10.304 101.99z"/><path d="m228.825 389.664c-5.034-4.691-11.587-7.148-18.468-6.893-6.876.246-13.244 3.159-17.93 8.201-9.668 10.402-9.082 26.739 1.307 36.418 4.804 4.477 10.994 6.911 17.523 6.911.314 0 .631-.006.947-.017 6.875-.247 13.243-3.16 17.929-8.203 9.666-10.401 9.079-26.737-1.308-36.417zm-9.681 26.207c-1.956 2.104-4.612 3.32-7.479 3.424-2.866.084-5.604-.918-7.705-2.878-4.345-4.049-4.59-10.882-.546-15.233 1.956-2.104 4.613-3.32 7.481-3.423.132-.005.263-.008.394-.008 2.723 0 5.305 1.017 7.31 2.884v.001c4.344 4.049 4.589 10.881.545 15.233z"/><path d="m318.064 389.663c-5.034-4.69-11.588-7.147-18.468-6.892-6.876.246-13.244 3.159-17.93 8.202-9.667 10.401-9.081 26.739 1.307 36.417 4.804 4.477 10.994 6.911 17.523 6.911.314 0 .631-.006.947-.017 6.875-.247 13.243-3.16 17.929-8.203 9.668-10.401 9.081-26.737-1.308-36.418zm-9.68 26.208c-1.956 2.104-4.612 3.32-7.479 3.424-2.868.084-5.604-.918-7.705-2.878-4.345-4.049-4.59-10.882-.546-15.233 1.956-2.104 4.613-3.32 7.481-3.423.132-.005.263-.008.394-.008 2.723 0 5.305 1.017 7.31 2.884v.001c4.345 4.049 4.59 10.881.545 15.233z"/><path d="m174.628 354.995h-14.974v-15.004c0-4.142-3.358-7.5-7.5-7.5s-7.5 3.357-7.5 7.5v15.004h-14.974c-4.142 0-7.5 3.357-7.5 7.5s3.358 7.5 7.5 7.5h14.974v15.004c0 4.143 3.358 7.5 7.5 7.5s7.5-3.357 7.5-7.5v-15.004h14.974c4.142 0 7.5-3.357 7.5-7.5s-3.358-7.5-7.5-7.5z"/><path d="m151.399 88.225c-42.962 0-77.914 34.994-77.914 78.008s34.952 78.008 77.914 78.008c24.562 0 47.97-11.806 62.619-31.582 2.21-2.983 1.904-7.136-.72-9.763l-38.72-38.771 36.881-36.93c2.709-2.714 2.936-7.034.525-10.015-14.88-18.402-36.962-28.955-60.585-28.955zm7.272 70.6c-2.924 2.929-2.924 7.672 0 10.599l39.221 39.273c-11.903 13.131-28.522 20.544-46.494 20.544-34.691 0-62.914-28.265-62.914-63.008s28.223-63.008 62.914-63.008c16.82 0 32.677 6.632 44.43 18.393z"/><path d="m432.477 171.15c1.424-1.641 2.067-3.818 1.762-5.97l-4.573-32.242c-3.616-25.491-25.735-44.713-51.453-44.713s-47.837 19.222-51.453 44.714l-4.573 32.241c-.305 2.151.338 4.329 1.762 5.97 1.425 1.641 3.491 2.583 5.664 2.583h21.361l-4.766 33.603c-1.318 9.294 1.454 18.688 7.606 25.774 6.142 7.074 15.035 11.132 24.398 11.132s18.256-4.058 24.398-11.132c6.151-7.086 8.924-16.48 7.605-25.774l-4.766-33.603h21.361c2.176 0 4.242-.943 5.667-2.583zm-41.192 52.125c-3.292 3.791-8.056 5.966-13.071 5.966s-9.78-2.175-13.071-5.966c-3.301-3.803-4.789-8.845-4.081-13.835l5.064-35.708h24.177l5.064 35.708c.707 4.991-.781 10.033-4.082 13.835zm-53.032-64.542 3.36-23.688c2.573-18.141 18.308-31.821 36.601-31.821s34.028 13.679 36.601 31.82l3.36 23.689z"/><ellipse cx="214.741" cy="165.582" rx="7.489" ry="7.485"/><ellipse cx="241.56" cy="165.568" rx="7.489" ry="7.485"/><ellipse cx="268.991" cy="165.582" rx="7.489" ry="7.485"/><ellipse cx="297.27" cy="165.568" rx="7.489" ry="7.485"/><ellipse cx="147.49" cy="129.487" rx="7.489" ry="7.485"/><ellipse cx="337.17" cy="362.497" rx="7.489" ry="7.485"/><ellipse cx="382.12" cy="362.497" rx="7.489" ry="7.485"/><ellipse cx="359.65" cy="339.989" rx="7.489" ry="7.485"/><ellipse cx="359.65" cy="384.998" rx="7.489" ry="7.485"/></g></svg>