<svg height="512" viewBox="0 0 256 256" width="512" xmlns="http://www.w3.org/2000/svg"><g id="Layer_69"><g><g><path d="m125.351 169.608h5.299c.043-.433.222-.856.554-1.188l9.847-9.847c-.788-1.336-1.238-2.874-1.238-4.486v-4.173c-3.541 1.853-7.558 2.909-11.812 2.909-4.254 0-8.271-1.056-11.812-2.909v4.173c0 1.614-.44 3.158-1.229 4.495l9.838 9.838c.331.333.509.755.553 1.188z" fill="#f9d0b4"/></g><g><path d="m60.15 91.058c-7.115-3.359-15.421-3.172-22.403.562v36.084c6.557-3.507 14.283-3.885 21.092-1.136 1.192.481 2.429-.541 2.429-2.054v-31.435c0-.883-.435-1.698-1.118-2.021z" fill="#edf4fc"/></g><g><path d="m15.344 91.058c-.683.322-1.118 1.138-1.118 2.021v31.435c0 1.513 1.237 2.535 2.429 2.054 6.81-2.749 14.535-2.371 21.092 1.136v-36.083c-6.982-3.734-15.288-3.922-22.403-.563z" fill="#edf4fc"/></g><g><path d="m68.267 94.826h-6.999v29.688c0 1.513-1.237 2.535-2.429 2.054-6.81-2.749-14.535-2.371-21.092 1.136-6.557-3.507-14.283-3.885-21.092-1.136-1.192.481-2.429-.541-2.429-2.054v-29.688h-7c-1.129 0-2.043.915-2.043 2.043v37.364c0 1.129.915 2.044 2.043 2.044h61.041c1.129 0 2.044-.915 2.044-2.044v-37.364c0-1.128-.915-2.043-2.044-2.043z" fill="#70d6f9"/></g><g><path d="m89.822 20.133c-.188-1.503-1.467-2.633-2.982-2.633h-37.679c-1.515 0-2.794 1.129-2.982 2.633-.118.939-.179 1.895-.179 2.867 0 12.426 9.85 22.5 22 22.5s22-10.074 22-22.5c0-.972-.061-1.928-.178-2.867z" fill="#edf4fc"/></g><g><path d="m84.258 45.5h-32.516c-1.238 0-2.242 1.004-2.242 2.242 0 4.285 3.473 7.758 7.758 7.758h21.484c4.285 0 7.758-3.473 7.758-7.758 0-1.238-1.004-2.242-2.242-2.242z" fill="#edf4fc"/></g><g><g><path d="m177.03 30.989c.433.433.56 1.05.395 1.598l6.591 7.018c.16-.076.313-.175.445-.307l7.371-7.371-8.308-8.308-6.933 6.933z" fill="#edf4fc"/></g></g><g><path d="m169.659 23.618 7.371 7.371c.627.627.627 1.643 0 2.27l-6.038 6.038c-.627.627-1.643.627-2.27 0l-7.371-7.371z" fill="#edf4fc"/></g><g><g><path d="m170.32 39.691c-.379.115-.79.086-1.152-.087l-13.388 14.254c-1.521 1.619-1.481 4.153.09 5.723 1.571 1.571 4.104 1.61 5.723.09l15-14.089z" fill="#d1956d"/></g></g><g><path d="m170.992 39.297 6.038-6.038c.194-.194.32-.427.394-.672l19.98 21.272c1.521 1.619 1.481 4.153-.09 5.723-1.57 1.57-4.104 1.61-5.723.09l-21.272-19.98c.246-.075.479-.201.673-.395z" fill="#d1956d"/></g><g><path d="m191.833 31.926-8.308-8.308s0-6.646 4.985-11.631c4.08-4.08 10.942-.925 15.577-2.833 1.512-.623 3.222.342 3.327 1.974.399 6.19.484 19.013-15.581 20.798z" fill="#f5c84c"/></g><g><path d="m161.351 31.926 8.308-8.308s0-6.646-4.985-11.631c-4.08-4.08-10.942-.925-15.577-2.833-1.512-.623-3.222.342-3.327 1.974-.399 6.19-.485 19.013 15.581 20.798z" fill="#f5c84c"/></g><g><path d="m233.412 99.036-29.883 6.404v-11.74l29.883-6.404z" fill="#fc657e"/></g><g><circle cx="225.942" cy="125.717" fill="#fc657e" r="7.471"/></g><g><circle cx="196.058" cy="132.121" fill="#fc657e" r="7.471"/></g><g><path d="m250.088 200.99-2.845-9.16c-.061-.197-.131-.389-.208-.575-1.632-3.935-6.814-4.897-10.011-2.082l-1.265 1.114c-1.787 1.573-4.593.892-5.46-1.325-.345-1.935-2.41-3.036-4.208-2.244-2.366 1.041-3.789 3.491-3.522 6.062l.469 4.512c.299 2.545-1.053 4.995-3.37 6.092-2.953 1.398-8.616 4.046-19.966 9.484-.559.268-1.236.094-1.59-.414l-4.677-6.72-16.966 12.927 10.575 14.528c3.037 4.172 8.81 5.237 13.135 2.421l28.675-18.664c2.459-1.601 5.069-2.959 7.791-4.055l9.631-3.877c3.166-1.274 4.824-4.765 3.812-8.024z" fill="#f9d0b4"/></g><g><path d="m5.912 200.99 2.845-9.16c.061-.197.131-.389.208-.575 1.632-3.935 6.814-4.897 10.011-2.082l1.265 1.114c1.787 1.573 4.593.892 5.46-1.325.345-1.935 2.41-3.036 4.208-2.244 2.366 1.041 3.789 3.491 3.522 6.062l-.469 4.512c-.299 2.545 1.053 4.995 3.37 6.092 2.953 1.398 8.616 4.046 19.966 9.484.559.268 1.236.094 1.59-.414l4.677-6.72 16.966 12.927-10.575 14.528c-3.037 4.172-8.81 5.237-13.135 2.421l-28.675-18.664c-2.459-1.601-5.069-2.959-7.791-4.055l-9.631-3.877c-3.166-1.274-4.824-4.765-3.812-8.024z" fill="#f9d0b4"/></g><g><g><path d="m194.53 202.003-15.06-23.062c-1.135-1.553-2.437-2.977-3.882-4.245-3.132-2.748-6.872-4.712-10.913-5.729-6.626-1.776-10.126-2.258-15.268-4.362-.086.321-.246.626-.498.878l-10.322 10.322c-.763.763-2.001.763-2.764 0l-4.619-4.619c-.431-.431-.61-1.014-.554-1.577h-5.299c.056.563-.122 1.145-.554 1.577l-4.619 4.619c-.763.763-2.001.763-2.764 0l-10.322-10.322c-.252-.252-.412-.557-.498-.878-5.144 2.105-8.624 2.581-15.268 4.362-4.041 1.017-7.781 2.981-10.913 5.729-1.445 1.268-2.747 2.692-3.882 4.245l-15.06 23.062c-.755 1.033-.545 2.481.473 3.257l18.026 13.734c1.028.783 2.495.59 3.285-.432l9.926-13.147v45.602c0 1.371 1.112 2.483 2.483 2.483h64.673c1.371 0 2.483-1.112 2.483-2.483v-45.602l9.926 13.147c.79 1.022 2.257 1.215 3.285.432l18.026-13.734c1.018-.776 1.228-2.224.473-3.257z" fill="#70d6f9"/></g></g><g><path d="m194.895 239.682c-3.777 0-7.491-1.751-9.872-5.021l-10.256-14.089c-.813-1.116-.566-2.681.55-3.493s2.681-.565 3.493.55l10.256 14.089c2.254 3.1 6.538 3.888 9.749 1.798l28.677-18.665c2.586-1.684 5.352-3.124 8.221-4.278l9.631-3.877c1.943-.782 2.979-2.962 2.357-4.962l-2.845-9.161c-.037-.119-.081-.242-.131-.361-.589-1.419-1.808-1.894-2.481-2.05-1.266-.296-2.601.038-3.566.89l-1.266 1.113c-1.452 1.277-3.439 1.768-5.317 1.312s-3.419-1.803-4.123-3.602c-.06-.153-.104-.312-.133-.473-.038-.211-.17-.321-.274-.377-.105-.057-.272-.104-.466-.018-1.378.606-2.198 2.019-2.043 3.516l.469 4.514c.421 3.581-1.502 7.055-4.787 8.608l-2.216 1.046c-3.33 1.57-8.749 4.126-17.739 8.434-1.675.802-3.661.282-4.722-1.24l-4.337-6.232c-.789-1.133-.51-2.691.624-3.479 1.13-.788 2.69-.511 3.479.624l3.736 5.368c8.444-4.044 13.608-6.479 16.826-7.996l2.208-1.043c1.346-.636 2.132-2.059 1.957-3.539l-.472-4.547c-.382-3.664 1.628-7.124 5.001-8.608 1.564-.688 3.326-.621 4.833.182 1.403.749 2.399 2.036 2.771 3.568.166.293.431.398.586.437.177.045.519.072.834-.206l1.265-1.113c2.175-1.915 5.166-2.669 8.001-2.008 2.738.635 4.915 2.461 5.972 5.008.105.257.2.519.284.785l2.847 9.167c1.389 4.468-.925 9.336-5.266 11.084l-9.631 3.877c-2.568 1.033-5.045 2.322-7.36 3.83l-28.677 18.665c-2.051 1.331-4.361 1.973-6.647 1.973z"/></g><g><path d="m61.105 239.682c-2.286 0-4.596-.642-6.648-1.978l-28.675-18.663c-2.316-1.509-4.793-2.798-7.361-3.831l-9.631-3.877c-4.341-1.748-6.654-6.616-5.266-11.085l2.845-9.159c.086-.273.181-.535.285-.789 1.058-2.55 3.234-4.376 5.973-5.011 2.832-.66 5.825.093 8 2.007l1.267 1.115c.313.275.655.247.833.205.155-.038.42-.144.586-.437.372-1.532 1.368-2.819 2.772-3.568 1.508-.804 3.269-.869 4.834-.182 3.372 1.484 5.382 4.944 5 8.609l-.469 4.512c-.178 1.515.608 2.938 1.953 3.573l2.209 1.043c3.218 1.518 8.382 3.952 16.826 7.996l3.803-5.465c.788-1.134 2.35-1.41 3.479-.624 1.134.788 1.413 2.347.624 3.479l-4.403 6.328c-1.06 1.523-3.046 2.044-4.722 1.241-8.991-4.308-14.409-6.863-17.739-8.434l-2.217-1.046c-3.284-1.554-5.207-5.027-4.783-8.643l.466-4.479c.155-1.498-.665-2.91-2.042-3.517-.195-.085-.36-.038-.467.018-.104.056-.236.166-.274.377-.028.161-.073.319-.133.473-.704 1.799-2.245 3.146-4.123 3.602-1.876.456-3.865-.033-5.316-1.311l-1.267-1.115c-.966-.851-2.301-1.186-3.566-.889-.674.156-1.893.631-2.482 2.053-.049.116-.093.239-.132.365l-2.844 9.156c-.622 2.001.414 4.181 2.357 4.963l9.631 3.877c2.869 1.154 5.635 2.595 8.222 4.279l28.675 18.663c3.213 2.095 7.495 1.303 9.75-1.797l10.225-14.046c.813-1.116 2.376-1.363 3.493-.55 1.116.813 1.362 2.377.55 3.493l-10.225 14.047c-2.381 3.27-6.095 5.022-9.873 5.022z"/></g><g><g><path d="m160.336 256h-64.673c-2.747 0-4.982-2.235-4.982-4.983v-38.142l-5.432 7.193c-1.641 2.125-4.682 2.524-6.795.914l-18.025-13.734c-2.065-1.573-2.516-4.544-1.022-6.657l15.031-23.018c.023-.036.049-.072.074-.107 1.241-1.699 2.672-3.263 4.251-4.649 3.415-2.996 7.548-5.166 11.952-6.275 2.005-.537 3.751-.963 5.338-1.349 3.47-.846 5.976-1.456 9.189-2.738 1.284-.512 2.737.114 3.249 1.396.512 1.283-.113 2.737-1.396 3.249-3.542 1.413-6.33 2.092-9.859 2.951-1.555.379-3.265.795-5.264 1.331-3.676.926-7.091 2.719-9.912 5.193-1.288 1.132-2.457 2.406-3.474 3.79l-15.016 22.993 17.794 13.557 9.82-13.006c.647-.858 1.774-1.205 2.789-.863 1.02.341 1.706 1.296 1.706 2.37v45.602l64.657-.018-.017-45.585c0-1.074.687-2.029 1.706-2.37 1.016-.342 2.142.005 2.789.863l9.82 13.007 17.794-13.558-15.016-22.993c-1.017-1.384-2.186-2.658-3.475-3.79-2.82-2.475-6.235-4.268-9.874-5.185-2.025-.542-3.729-.957-5.28-1.335-3.546-.863-6.347-1.545-9.901-2.966-1.282-.512-1.906-1.967-1.394-3.249.513-1.281 1.965-1.907 3.249-1.394 3.227 1.289 5.744 1.902 9.229 2.751 1.584.386 3.324.81 5.355 1.354 4.367 1.1 8.5 3.27 11.914 6.266 1.58 1.387 3.011 2.95 4.252 4.649.025.035.051.071.074.107l15.031 23.018c1.493 2.113 1.043 5.084-1.021 6.657l-18.027 13.734c-2.111 1.61-5.151 1.21-6.777-.892l-5.448-7.216v38.142c0 2.75-2.235 4.985-4.983 4.985z"/></g></g><g><path d="m124.797 168.421-10.322-10.322c-.763-.763-2.001-.763-2.764 0l-4.619 4.619c-.763.763-.763 2.001 0 2.764l10.322 10.322c.763.763 2.001.763 2.764 0l4.619-4.619c.763-.763.763-2.001 0-2.764z" fill="#9be5f9"/></g><g><path d="m131.203 168.421 10.322-10.322c.763-.763 2.001-.763 2.764 0l4.619 4.619c.763.763.763 2.001 0 2.764l-10.322 10.322c-.763.763-2.001.763-2.764 0l-4.619-4.619c-.763-.763-.763-2.001 0-2.764z" fill="#9be5f9"/></g><g><path d="m118.796 178.875c-1.142 0-2.282-.434-3.15-1.303l-10.322-10.322c-1.737-1.736-1.737-4.563 0-6.3l4.619-4.619c1.736-1.739 4.563-1.738 6.3 0l10.322 10.322c.001 0 .001.001.001.001 1.734 1.736 1.734 4.562 0 6.298l-4.62 4.62c-.869.869-2.009 1.303-3.15 1.303zm-9.552-14.775 9.551 9.552 3.849-3.849-9.552-9.551z"/></g><g><path d="m137.204 178.875c-1.141 0-2.281-.434-3.149-1.303l-4.619-4.619c-1.735-1.737-1.735-4.563-.001-6.299 0 0 0-.001.001-.001l10.322-10.322c1.735-1.737 4.563-1.739 6.3 0l4.619 4.619c1.737 1.736 1.737 4.563 0 6.3l-10.322 10.322c-.869.869-2.009 1.303-3.151 1.303zm-3.848-9.072 3.849 3.849 9.551-9.552-3.848-3.848z"/></g><g><path d="m131.84 96.08c-9.364 11.776-23.179 10.115-27.824 9.142-.844-.177-1.654.46-1.655 1.322v.017 20.624c0 14.101 11.537 25.639 25.639 25.639 14.101 0 25.639-11.537 25.639-25.639v-22.839c0-.134-.001-.268-.004-.401-.014-.727-.597-1.326-1.324-1.348-10.651-.312-16.263-4.534-18.42-6.647-.588-.576-1.538-.515-2.051.13z" fill="#f9d0b4"/></g><g><g><path d="m100.716 107.646c.56 0 1.109.047 1.645.13v-1.215c0-.006 0-.012 0-.017.001-.862.811-1.499 1.655-1.322 4.645.972 18.459 2.634 27.824-9.143.513-.645 1.463-.706 2.052-.129 2.156 2.114 7.768 6.335 18.42 6.647.727.021 1.309.621 1.324 1.348.003.133.004.267.004.401v3.429c.537-.083 1.085-.13 1.645-.13 2.886 0 5.499 1.147 7.424 3.004v-19.253c0-8.055-6.59-14.645-14.645-14.645-2.732 0-5.286.772-7.481 2.088-2.564-4.279-7.235-7.168-12.56-7.168h-7.52c-14.555 0-26.464 11.909-26.464 26.464v11.858c1.83-1.466 4.149-2.347 6.677-2.347z" fill="#754e34"/></g></g><g><path d="m155.284 107.646c-.56 0-1.109.047-1.645.13v19.41c0 .578-.026 1.15-.065 1.719.558.09 1.126.149 1.71.149 5.912 0 10.704-4.792 10.704-10.704s-4.792-10.704-10.704-10.704z" fill="#f9d0b4"/></g><g><path d="m102.361 127.186c0-2.656 0-14.128 0-19.41-.537-.083-1.085-.13-1.645-.13-5.912 0-10.704 4.793-10.704 10.704 0 5.912 4.792 10.704 10.704 10.704.583 0 1.152-.059 1.71-.149-.038-.569-.065-1.141-.065-1.719z" fill="#f9d0b4"/></g><g><path d="m128 155.325c-15.516 0-28.139-12.623-28.139-28.14v-20.624c.001-1.181.521-2.267 1.425-3 .912-.741 2.093-1.027 3.242-.786 4.842 1.015 17.013 2.237 25.354-8.251.685-.861 1.705-1.395 2.801-1.463 1.079-.067 2.172.334 2.958 1.104 1.721 1.687 6.799 5.642 16.743 5.934 2.06.059 3.708 1.726 3.749 3.796.004.146.005.299.005.451v22.839c.001 15.517-12.622 28.14-28.138 28.14zm-23.139-47.404v19.265c0 12.759 10.38 23.14 23.139 23.14s23.139-10.381 23.139-23.14v-22.134c-9.509-.517-15.183-3.97-18.104-6.494-9.446 10.967-22.626 10.264-28.174 9.363zm28.937-10.286c-.001 0-.001.001 0 0-.001.001-.001 0 0 0zm-1.958-1.555h.01z"/></g><g><g><path d="m162.708 112.563c-1.381 0-2.5-1.119-2.5-2.5v-18.667c0-6.697-5.448-12.146-12.145-12.146-2.163 0-4.306.6-6.195 1.732-.569.342-1.251.442-1.894.281s-1.196-.571-1.537-1.14c-2.2-3.672-6.191-5.953-10.415-5.953h-7.521c-13.214 0-23.965 10.75-23.965 23.964v11.47c0 1.381-1.119 2.5-2.5 2.5s-2.5-1.119-2.5-2.5v-11.47c0-15.971 12.993-28.964 28.965-28.964h7.521c5.189 0 10.125 2.427 13.362 6.456 2.114-.905 4.386-1.377 6.679-1.377 9.453 0 17.145 7.691 17.145 17.146v18.667c0 1.381-1.119 2.501-2.5 2.501z"/></g></g><g><path d="m155.284 131.555c-.398 0-.792-.021-1.181-.06-1.374-.135-2.379-1.358-2.244-2.732.136-1.375 1.365-2.38 2.732-2.244.229.022.458.036.692.036 4.523 0 8.204-3.681 8.204-8.204 0-4.524-3.681-8.205-8.204-8.205-.212 0-.421.009-.628.025-1.375.108-2.583-.911-2.695-2.287-.113-1.376.911-2.583 2.287-2.695.342-.028.688-.043 1.036-.043 7.281 0 13.204 5.924 13.204 13.205s-5.922 13.204-13.203 13.204z"/></g><g><path d="m100.716 131.555c-7.281 0-13.204-5.923-13.204-13.204s5.923-13.205 13.204-13.205c.349 0 .694.015 1.036.043 1.376.112 2.4 1.319 2.287 2.695-.112 1.376-1.324 2.396-2.695 2.287-.207-.017-.416-.025-.628-.025-4.523 0-8.204 3.681-8.204 8.205 0 4.523 3.681 8.204 8.204 8.204.214 0 .425-.011.633-.03 1.383-.139 2.594.884 2.721 2.258.128 1.375-.884 2.593-2.258 2.721-.361.032-.726.051-1.096.051z"/></g><g><path d="m140.848 160.71c-.896 0-1.763-.483-2.211-1.331-.867-1.636-1.325-3.466-1.325-5.291v-3.65c0-1.381 1.119-2.5 2.5-2.5s2.5 1.119 2.5 2.5v3.65c0 1.013.257 2.033.743 2.951.646 1.22.182 2.732-1.039 3.379-.373.198-.774.292-1.168.292z"/></g><g><path d="m130.229 172.108h-4.417c-1.381 0-2.5-1.119-2.5-2.5s1.119-2.5 2.5-2.5h4.417c1.381 0 2.5 1.119 2.5 2.5s-1.119 2.5-2.5 2.5z"/></g><g><path d="m115.292 160.462c-.368 0-.741-.082-1.095-.254-1.24-.605-1.756-2.103-1.15-3.344.426-.872.642-1.806.642-2.776v-3.713c0-1.381 1.119-2.5 2.5-2.5s2.5 1.119 2.5 2.5v3.713c0 1.713-.396 3.431-1.147 4.97-.435.887-1.324 1.404-2.25 1.404z"/></g><g><path d="m37.747 129.042c-1.381 0-2.5-1.119-2.5-2.5v-33.979c0-1.381 1.119-2.5 2.5-2.5s2.5 1.119 2.5 2.5v33.979c0 1.381-1.119 2.5-2.5 2.5z"/></g><g><path d="m37.747 130.204c-.405 0-.811-.099-1.179-.296-5.881-3.145-12.798-3.518-18.978-1.021-1.29.517-2.688.369-3.844-.411-1.266-.854-2.021-2.335-2.021-3.962v-31.435c0-1.87 1.002-3.551 2.552-4.282 7.414-3.498 16.089-3.471 23.47.025 7.379-3.496 16.055-3.524 23.471-.024 1.55.731 2.551 2.412 2.551 4.281v31.435c0 1.626-.756 3.107-2.021 3.962-1.155.778-2.555.931-3.844.411-6.181-2.497-13.099-2.123-18.979 1.021-.367.197-.773.296-1.178.296zm-11.756-7.955c4.026 0 8.039.89 11.756 2.655 6.603-3.134 14.138-3.51 21.02-1.039l.002-30.691c-6.321-2.863-13.712-2.627-19.843.651-.736.395-1.621.395-2.357 0-6.129-3.278-13.518-3.516-19.838-.653l-.005 30.694c3.006-1.081 6.14-1.617 9.265-1.617zm33.089-28.931c.001 0 .002.001.003.001-.001 0-.002-.001-.003-.001z"/></g><g><path d="m68.268 138.776h-61.041c-2.506 0-4.544-2.038-4.544-4.544v-37.363c0-2.506 2.038-4.544 4.544-4.544h6.367c1.381 0 2.5 1.119 2.5 2.5s-1.119 2.5-2.5 2.5h-5.911v36.451h60.128v-36.451h-5.561c-1.381 0-2.5-1.119-2.5-2.5s1.119-2.5 2.5-2.5h6.018c2.505 0 4.543 2.038 4.543 4.544v37.363c0 2.506-2.039 4.544-4.543 4.544z"/></g><g><path d="m46.01 100.959c-1.233 0-2.306-.911-2.475-2.167-.185-1.368.776-2.627 2.145-2.811 2.349-.317 4.743-.316 7.114-.005 1.369.181 2.333 1.437 2.152 2.805-.181 1.37-1.433 2.333-2.805 2.152-1.936-.255-3.886-.253-5.796.003-.113.016-.225.023-.335.023z"/></g><g><path d="m46.01 109.51c-1.233 0-2.306-.911-2.475-2.167-.185-1.368.776-2.627 2.145-2.811 2.349-.317 4.743-.316 7.114-.005 1.369.181 2.333 1.437 2.152 2.805-.181 1.369-1.433 2.342-2.805 2.152-1.936-.255-3.886-.254-5.796.003-.113.016-.225.023-.335.023z"/></g><g><path d="m46.01 118.061c-1.233 0-2.306-.911-2.475-2.167-.185-1.368.776-2.627 2.145-2.811 2.349-.316 4.743-.317 7.114-.005 1.369.181 2.333 1.437 2.152 2.805-.181 1.369-1.433 2.338-2.805 2.152-1.936-.254-3.886-.253-5.796.003-.113.016-.225.023-.335.023z"/></g><g><path d="m28.956 100.959c-.11 0-.223-.007-.336-.022-1.912-.258-3.862-.258-5.796-.003-1.366.182-2.624-.782-2.805-2.152-.181-1.368.783-2.624 2.152-2.805 2.373-.312 4.767-.313 7.114.005 1.369.184 2.329 1.442 2.145 2.811-.168 1.255-1.242 2.166-2.474 2.166z"/></g><g><path d="m28.956 109.51c-.11 0-.223-.007-.336-.022-1.912-.257-3.862-.258-5.796-.003-1.366.19-2.624-.783-2.805-2.152-.181-1.368.783-2.624 2.152-2.805 2.373-.312 4.767-.313 7.114.005 1.369.184 2.329 1.442 2.145 2.811-.168 1.255-1.242 2.166-2.474 2.166z"/></g><g><path d="m28.956 118.061c-.11 0-.223-.007-.336-.022-1.912-.257-3.862-.258-5.796-.003-1.366.186-2.624-.783-2.805-2.152-.181-1.368.783-2.624 2.152-2.805 2.373-.313 4.767-.312 7.114.005 1.369.184 2.329 1.442 2.145 2.811-.168 1.254-1.242 2.166-2.474 2.166z"/></g><g><path d="m68 48c-13.51 0-24.5-11.215-24.5-25 0-1.064.066-2.135.198-3.18.343-2.747 2.692-4.82 5.463-4.82h37.678c2.771 0 5.119 2.072 5.463 4.82.132 1.045.198 2.116.198 3.18 0 13.785-10.99 25-24.5 25zm-18.839-28c-.255 0-.47.19-.502.442-.105.842-.159 1.702-.159 2.558 0 11.028 8.748 20 19.5 20s19.5-8.972 19.5-20c0-.856-.054-1.716-.159-2.555 0-.001 0-.002 0-.003-.032-.252-.247-.442-.502-.442z"/></g><g><path d="m78.742 58h-21.484c-5.656 0-10.258-4.602-10.258-10.258 0-2.615 2.127-4.742 4.742-4.742h32.516c2.615 0 4.742 2.127 4.742 4.742 0 5.656-4.602 10.258-10.258 10.258zm-26.736-10c.135 2.78 2.439 5 5.252 5h21.484c2.813 0 5.117-2.22 5.252-5zm32.252 0h.01z"/></g><g><path d="m58 10c-1.381 0-2.5-1.119-2.5-2.5v-5c0-1.381 1.119-2.5 2.5-2.5s2.5 1.119 2.5 2.5v5c0 1.381-1.119 2.5-2.5 2.5z"/></g><g><path d="m68 10c-1.381 0-2.5-1.119-2.5-2.5v-5c0-1.381 1.119-2.5 2.5-2.5s2.5 1.119 2.5 2.5v5c0 1.381-1.119 2.5-2.5 2.5z"/></g><g><path d="m78 10c-1.381 0-2.5-1.119-2.5-2.5v-5c0-1.381 1.119-2.5 2.5-2.5s2.5 1.119 2.5 2.5v5c0 1.381-1.119 2.5-2.5 2.5z"/></g><g><path d="m91.037 41h-6.787c-1.381 0-2.5-1.119-2.5-2.5s1.119-2.5 2.5-2.5h6.787c4.004 0 7.59-2.537 8.922-6.313.467-1.323.271-2.739-.54-3.885s-2.08-1.802-3.483-1.802h-5.686c-1.381 0-2.5-1.119-2.5-2.5s1.119-2.5 2.5-2.5h5.686c3.003 0 5.831 1.464 7.565 3.915s2.173 5.605 1.173 8.437c-2.036 5.77-7.517 9.648-13.637 9.648z"/></g><g><path d="m203.529 107.939c-.566 0-1.123-.193-1.571-.556-.588-.475-.929-1.189-.929-1.944v-11.739c0-1.179.823-2.197 1.977-2.444l29.883-6.404c.732-.157 1.508.026 2.095.5.588.475.929 1.189.929 1.944v11.74c0 1.179-.823 2.197-1.977 2.444l-29.883 6.403c-.174.038-.349.056-.524.056zm2.5-12.218v6.626l24.883-5.332v-6.626zm27.383 3.315h.01z"/></g><g><path d="m233.412 128.218c-1.381 0-2.5-1.119-2.5-2.5v-26.682c0-1.381 1.119-2.5 2.5-2.5s2.5 1.119 2.5 2.5v26.682c0 1.381-1.119 2.5-2.5 2.5z"/></g><g><path d="m225.941 135.688c-5.498 0-9.971-4.473-9.971-9.971s4.473-9.972 9.971-9.972 9.971 4.474 9.971 9.972-4.473 9.971-9.971 9.971zm0-14.942c-2.741 0-4.971 2.23-4.971 4.972s2.229 4.971 4.971 4.971 4.971-2.229 4.971-4.971-2.229-4.972-4.971-4.972z"/></g><g><path d="m203.529 134.621c-1.381 0-2.5-1.119-2.5-2.5v-26.682c0-1.381 1.119-2.5 2.5-2.5s2.5 1.119 2.5 2.5v26.682c0 1.381-1.119 2.5-2.5 2.5z"/></g><g><path d="m196.059 142.092c-5.498 0-9.971-4.473-9.971-9.971s4.473-9.971 9.971-9.971 9.971 4.473 9.971 9.971-4.473 9.971-9.971 9.971zm0-14.942c-2.741 0-4.971 2.229-4.971 4.971s2.229 4.971 4.971 4.971 4.971-2.229 4.971-4.971-2.23-4.971-4.971-4.971z"/></g><g><g><path d="m184.461 41.797c-.64 0-1.279-.244-1.768-.732-.977-.977-.977-2.559 0-3.535l7.054-7.054c.977-.977 2.559-.977 3.535 0s.977 2.559 0 3.535l-7.054 7.054c-.488.488-1.127.732-1.767.732z"/></g><g><path d="m177.04 32.603c-.64 0-1.279-.244-1.768-.732-.977-.977-.977-2.559 0-3.535l6.188-6.188c.977-.977 2.559-.977 3.535 0s.977 2.559 0 3.535l-6.188 6.188c-.488.487-1.127.732-1.767.732z"/></g></g><g><path d="m191.833 34.426c-.659 0-1.296-.261-1.768-.732l-8.309-8.309c-.469-.469-.732-1.104-.732-1.768 0-.313.065-7.747 5.718-13.398 3.166-3.167 7.468-3.031 10.922-2.924 2.086.065 4.059.128 5.47-.453 1.484-.613 3.177-.475 4.528.368 1.327.828 2.146 2.197 2.247 3.757.91 14.143-5.079 22.03-17.8 23.443-.092.011-.184.016-.276.016zm-5.736-11.773 6.631 6.632c11.584-1.815 12.654-10.389 12.203-17.81-2.35.977-4.927.895-7.424.817-2.997-.095-5.592-.176-7.229 1.461-3.16 3.16-3.972 7.108-4.181 8.9z"/></g><g><g><path d="m158.775 63.298c-1.69 0-3.378-.651-4.674-1.948-2.541-2.541-2.604-6.583-.145-9.202l13.035-13.879c.946-1.007 2.527-1.056 3.534-.11 1.006.945 1.056 2.527.11 3.534l-13.033 13.877c-.6.639-.584 1.624.035 2.244.621.618 1.605.634 2.244.034l14.459-13.582c1.007-.945 2.59-.895 3.534.11.945 1.007.896 2.589-.11 3.534l-14.46 13.582c-1.283 1.205-2.908 1.805-4.529 1.806z"/></g></g><g><path d="m169.857 42.267c-1.098 0-2.129-.427-2.904-1.203l-7.053-7.054c-.977-.977-.977-2.559 0-3.535s2.559-.977 3.535 0l6.422 6.422 4.772-4.772-6.283-6.283c-.977-.976-.977-2.559 0-3.535s2.559-.977 3.535 0l6.916 6.915c1.601 1.601 1.601 4.205 0 5.806l-6.038 6.038c-.775.774-1.806 1.201-2.902 1.201zm5.406-9.511h.01z"/></g><g><path d="m161.352 34.426c-.092 0-.184-.005-.276-.016-12.722-1.413-18.711-9.301-17.801-23.442.101-1.561.92-2.93 2.247-3.758 1.352-.842 3.045-.979 4.528-.368 1.411.581 3.381.519 5.47.453 3.458-.107 7.756-.243 10.923 2.924 5.651 5.651 5.717 13.085 5.717 13.398 0 .663-.264 1.299-.732 1.768l-8.308 8.309c-.472.471-1.109.732-1.768.732zm-13.101-22.918c-.446 7.412.637 15.964 12.206 17.777l6.624-6.625c-.22-1.798-1.05-5.781-4.174-8.906-1.637-1.637-4.233-1.555-7.23-1.461-2.487.076-5.054.157-7.426-.785z"/></g><g><path d="m194.408 63.297c-1.622 0-3.245-.6-4.527-1.804l-20.968-19.693c-1.006-.945-1.056-2.527-.11-3.534s2.527-1.056 3.534-.11l20.967 19.693c.639.6 1.624.585 2.244-.035.619-.618.634-1.604.034-2.244l-19.603-20.87c-.945-1.007-.896-2.589.11-3.534 1.006-.943 2.589-.896 3.534.11l19.603 20.871c2.46 2.619 2.396 6.661-.143 9.203-1.297 1.296-2.984 1.947-4.675 1.947z"/></g><g><g><g><path d="m38.192 44.85c-4.5-.8-8-4.3-8.9-8.7 0-.2-.4-.2-.4 0-.9 4.4-4.4 7.9-8.9 8.7-.2 0-.2.3 0 .4 4.5.8 8 4.3 8.9 8.7 0 .2.4.2.4 0 .9-4.4 4.4-7.9 8.9-8.7.2-.1.2-.4 0-.4z" fill="#f5c84c"/></g></g></g><g><g><g><path d="m191.002 85.059c-3.158-.561-5.613-3.017-6.245-6.104 0-.14-.281-.14-.281 0-.631 3.087-3.087 5.543-6.245 6.104-.14 0-.14.21 0 .281 3.158.561 5.613 3.017 6.245 6.104 0 .14.281.14.281 0 .631-3.087 3.087-5.543 6.245-6.104.141-.071.141-.281 0-.281z" fill="#70d6f9"/></g></g></g><g><g><g><path d="m206.092 170.349h-2.3v-2.3c0-1.7-1.4-3.2-3.2-3.2s-3.2 1.4-3.2 3.2v2.3h-2.3c-1.7 0-3.2 1.4-3.2 3.2s1.4 3.2 3.2 3.2h2.3v2.3c0 1.7 1.4 3.2 3.2 3.2s3.2-1.4 3.2-3.2v-2.3h2.3c1.7 0 3.2-1.4 3.2-3.2s-1.4-3.2-3.2-3.2z" fill="#87d147"/></g></g></g><g><g><g><circle cx="41.192" cy="71.249" fill="#fc657e" r="3.4"/></g></g></g><g><g><g><circle cx="213.192" cy="150.249" fill="#f5c84c" r="3.4"/></g></g></g><g><path d="m128.387 139.507c-3.832 0-7.438-1.572-9.645-4.205-.887-1.059-.748-2.636.31-3.522 1.058-.888 2.636-.75 3.522.31 1.269 1.515 3.441 2.418 5.813 2.418s4.544-.904 5.814-2.418c.888-1.059 2.465-1.196 3.521-.309 1.058.887 1.196 2.464.309 3.521-2.208 2.633-5.813 4.205-9.644 4.205z"/></g><g><circle cx="138.223" cy="118.606" r="3.64"/></g><g><circle cx="117.777" cy="118.606" r="3.64"/></g></g></g></svg>