<svg id="Capa_1" enable-background="new 0 0 512 512" height="512" viewBox="0 0 512 512" width="512" xmlns="http://www.w3.org/2000/svg"><g><path d="m290.857 433.056h-14.318-41.078-14.318c-28.492 0-51.589 23.097-51.589 51.589v13.285c0 3.629 2.942 6.57 6.57 6.57h159.75c3.629 0 6.57-2.942 6.57-6.57v-13.285c.002-28.492-23.095-51.589-51.587-51.589z" fill="#80b4fb"/><path d="m290.857 433.056h-25.137c28.492 0 51.589 23.097 51.589 51.589v13.285c0 3.629-2.942 6.57-6.57 6.57h25.137c3.629 0 6.57-2.942 6.57-6.57v-13.285c0-28.492-23.097-51.589-51.589-51.589z" fill="#61a2f9"/><path d="m133.823 224.853v114.535c0 7.344 5.953 13.297 13.297 13.297h217.76c7.344 0 13.297-5.953 13.297-13.297v-114.535c0-26.976-21.868-48.844-48.844-48.844-8.301 0-16.35 2.855-22.797 8.085l-2.68 2.174c-.813.66-1.965.702-2.824.104l-5.588-3.887c-6.063-4.217-13.272-6.478-20.658-6.478h-92.12c-26.975.002-48.843 21.87-48.843 48.846z" fill="#365e7d"/><g><path d="m329.334 176.009c-4.126 0-8.189.707-12.025 2.058 20.13 6.033 34.803 24.692 34.803 46.785v114.534c0 7.344-5.953 13.297-13.297 13.297h26.065c7.344 0 13.297-5.953 13.297-13.297v-114.533c0-26.976-21.868-48.844-48.843-48.844z" fill="#2b4d66"/></g><path d="m411.499 7.5h-310.997c-7.44 0-13.472 6.031-13.472 13.472v83.901c0 7.44 6.031 13.472 13.472 13.472h40.514c.764 0 1.47.407 1.852 1.069l9.434 16.341c.823 1.425 2.88 1.425 3.703 0l9.434-16.341c.382-.661 1.088-1.069 1.852-1.069h75.572c.764 0 1.47.407 1.852 1.069l9.434 16.341c.823 1.425 2.88 1.425 3.703 0l9.434-16.341c.382-.661 1.088-1.069 1.852-1.069h75.572c.764 0 1.47.407 1.852 1.069l9.434 16.341c.823 1.425 2.88 1.425 3.703 0l9.434-16.341c.382-.661 1.088-1.069 1.852-1.069h40.514c7.44 0 13.472-6.031 13.472-13.472v-83.901c-.001-7.44-6.032-13.472-13.472-13.472z" fill="#f6f9f9"/><g><path d="m411.499 7.5h-27.199c7.44 0 13.472 6.031 13.472 13.472v83.901c0 7.44-6.031 13.472-13.472 13.472h27.198c7.44 0 13.472-6.031 13.472-13.472v-83.901c0-7.44-6.031-13.472-13.471-13.472z" fill="#d8e2f1"/></g><g><path d="m270.379 395.016-27.584-1.623c-7.043 0-7.352 32.996-7.352 32.996v20.2c0 11.343 9.196 20.539 20.539 20.539 11.343 0 20.539-9.196 20.539-20.539v-20.2c-.001.001.9-31.373-6.142-31.373z" fill="#eaac9d"/></g><path d="m256 433.056c-54.738 0-99.112-44.374-99.112-99.112v-59.946c0-1.44 1.17-2.601 2.61-2.604 45.871-.084 86.413-6.655 122.575-30.023 1.08-.698 2.525-.475 3.299.552 16.33 21.68 38.603 27.679 67.142 29.331 1.455.084 2.598 1.28 2.598 2.737v59.952c0 54.739-44.374 99.113-99.112 99.113z" fill="#ffcbbe"/><path d="m352.515 271.255c-8.398-.486-16.248-1.354-23.569-2.881v65.571c0 50.302-37.475 91.847-86.029 98.251 4.281.565 8.648.861 13.083.861 54.738 0 99.112-44.374 99.112-99.112v-59.952c0-1.459-1.142-2.654-2.597-2.738z" fill="#eaac9d"/><g><path d="m329.334 168.509c-9.85 0-19.49 3.37-27.194 9.498l-2.412-1.677c-7.356-5.116-15.98-7.821-24.94-7.821h-92.12c-31.068 0-56.344 25.276-56.344 56.344v114.535c0 11.468 9.33 20.797 20.797 20.797h5.54c7.401 29.134 26.828 53.521 52.667 67.539-24.923 6.935-43.272 29.818-43.272 56.922v13.285c0 7.759 6.312 14.07 14.07 14.07h50.819c4.142 0 7.5-3.357 7.5-7.5s-3.358-7.5-7.5-7.5h-49.89v-12.355c0-24.311 19.778-44.089 44.089-44.089h6.799v6.033c0 15.461 12.578 28.039 28.039 28.039 15.46 0 28.039-12.578 28.039-28.039v-6.033h6.837c24.311 0 44.089 19.778 44.089 44.089v12.354h-78.015c-4.142 0-7.5 3.357-7.5 7.5s3.358 7.5 7.5 7.5h78.945c7.759 0 14.07-6.312 14.07-14.07v-13.285c0-27.103-18.349-49.987-43.272-56.922 25.838-14.018 45.265-38.405 52.667-67.539h5.54c11.468 0 20.797-9.329 20.797-20.797v-49.007c0-4.143-3.357-7.5-7.5-7.5s-7.5 3.357-7.5 7.5v49.007c0 3.196-2.601 5.797-5.797 5.797h-2.861c.389-3.695.592-7.444.592-11.24v-59.952c0-5.417-4.243-9.908-9.664-10.225-26.191-1.516-46.688-6.577-61.583-26.353-3.116-4.141-8.985-5.171-13.361-2.342-30.701 19.838-67.253 28.728-118.516 28.823-5.569.008-10.1 4.54-10.1 10.104v59.945c0 3.796.203 7.545.592 11.24h-2.861c-3.196 0-5.797-2.601-5.797-5.797v-114.534c0-22.797 18.547-41.344 41.344-41.344h92.12c5.883 0 11.546 1.776 16.376 5.135l5.586 3.885c3.579 2.491 8.445 2.312 11.834-.436l2.68-2.174c5.094-4.133 11.512-6.41 18.071-6.41 22.797 0 41.344 18.547 41.344 41.344v35.541c0 4.143 3.357 7.5 7.5 7.5s7.5-3.357 7.5-7.5v-35.541c0-31.068-25.276-56.344-56.344-56.344zm-73.353 291.119c-7.189 0-13.039-5.85-13.039-13.039v-6.834c4.281.525 8.637.801 13.058.801 4.407 0 8.751-.274 13.02-.796v6.829c.001 7.19-5.849 13.039-13.039 13.039zm-91.592-180.768c49.747-.631 86.497-9.594 117.908-28.772 18.039 21.299 41.779 26.602 65.315 28.36v55.496c0 50.516-41.097 91.612-91.612 91.612s-91.612-41.097-91.612-91.612v-55.084z"/><path d="m211.871 341.3c4.142 0 7.5-3.357 7.5-7.5v-5.771c0-4.143-3.358-7.5-7.5-7.5s-7.5 3.357-7.5 7.5v5.771c0 4.143 3.358 7.5 7.5 7.5z"/><path d="m300.13 341.3c4.143 0 7.5-3.357 7.5-7.5v-5.771c0-4.143-3.357-7.5-7.5-7.5s-7.5 3.357-7.5 7.5v5.771c0 4.143 3.357 7.5 7.5 7.5z"/><path d="m223.1 381.417c10.917 6.059 21.907 9.087 32.901 9.087 10.991 0 21.986-3.029 32.901-9.087 3.621-2.01 4.928-6.575 2.918-10.197-2.01-3.621-6.575-4.928-10.197-2.918-17.241 9.567-34.003 9.567-51.243 0-3.624-2.01-8.188-.703-10.197 2.918-2.012 3.621-.705 8.187 2.917 10.197z"/><path d="m163.046 26.501c-1.989 0-3.897.79-5.303 2.197l-36.142 36.142c-1.115 1.115-1.85 2.552-2.101 4.108l-3.502 21.699c-.384 2.377.398 4.795 2.101 6.498 1.417 1.418 3.33 2.197 5.303 2.197.397 0 .797-.031 1.195-.096l21.699-3.501c1.556-.251 2.994-.986 4.108-2.101l36.143-36.143c2.929-2.929 2.929-7.678 0-10.606l-18.197-18.197c-1.407-1.407-3.314-2.197-5.304-2.197zm-21.533 54.822-9.051 1.461 1.461-9.052 29.124-29.125 7.591 7.591z"/><path d="m262.41 79.642c.026-.253.039-.509.039-.768v-37.42c5.077-.194 8.95 2.166 12.684 7.447 2.39 3.384 7.071 4.188 10.453 1.797 3.383-2.391 4.188-7.071 1.797-10.453-8.645-12.233-20.617-16.437-34.625-12.158-3.154.964-5.309 3.875-5.309 7.173v23.875c-1.757-.491-3.6-.774-5.512-.774-11.31 0-20.511 9.202-20.511 20.512s9.201 20.511 20.511 20.511c11.051.001 20.065-8.79 20.473-19.742zm-25.984-.768c0-3.039 2.472-5.512 5.511-5.512s5.512 2.473 5.512 5.512-2.473 5.511-5.512 5.511-5.511-2.472-5.511-5.511z"/><path d="m357.86 93.956c1.055 0 2.11-.223 3.094-.667 13.125-5.943 35.145-18.81 35.145-38.21 0-13.003-10.045-23.189-22.869-23.189-6.704 0-11.816 2.205-15.369 4.567-3.552-2.362-8.664-4.567-15.368-4.567-12.824 0-22.869 10.186-22.869 23.189 0 19.4 22.019 32.267 35.144 38.21.982.444 2.037.667 3.092.667zm-23.237-38.878c0-4.069 2.703-8.189 7.869-8.189 5.763 0 8.926 3.532 9.351 4.041 1.368 1.99 3.537 3.088 5.957 3.133 2.431.06 4.672-1.215 6.114-3.187.029-.04 3.191-3.988 9.315-3.988 5.166 0 7.869 4.12 7.869 8.189 0 7.396-8.619 15.907-23.238 23.087-14.618-7.18-23.237-15.69-23.237-23.086z"/><path d="m411.499 0h-215.261c-4.142 0-7.5 3.358-7.5 7.5s3.358 7.5 7.5 7.5h215.261c3.292 0 5.971 2.679 5.971 5.972v83.901c0 3.292-2.679 5.971-5.971 5.971h-40.515c-3.433 0-6.632 1.847-8.347 4.819l-4.791 8.297-4.789-8.296c-1.716-2.973-4.915-4.82-8.348-4.82h-75.572c-3.433 0-6.632 1.847-8.347 4.819l-4.79 8.297-4.792-8.299c-1.717-2.971-4.915-4.817-8.345-4.817h-75.572c-3.433 0-6.631 1.847-8.347 4.819l-4.791 8.297-4.79-8.296c-1.716-2.973-4.915-4.82-8.348-4.82h-40.514c-3.292 0-5.971-2.679-5.971-5.971v-83.901c0-3.293 2.679-5.972 5.971-5.972h65.749c4.142 0 7.5-3.358 7.5-7.5s-3.358-7.5-7.5-7.5h-65.749c-11.563 0-20.97 9.408-20.97 20.972v83.901c0 11.563 9.408 20.971 20.971 20.971h37.418l7.886 13.659c1.716 2.972 4.914 4.819 8.346 4.819h.001c3.432 0 6.63-1.846 8.347-4.819l7.886-13.66h69.381l7.886 13.659c1.716 2.973 4.915 4.819 8.347 4.819 3.433 0 6.631-1.847 8.347-4.819l7.887-13.66h69.381l7.887 13.661c1.716 2.972 4.914 4.818 8.346 4.818h.003c3.433-.001 6.63-1.848 8.344-4.819l7.887-13.66h37.419c11.563 0 20.971-9.408 20.971-20.971v-83.899c-.002-11.564-9.41-20.972-20.973-20.972z"/></g></g></svg>