<svg id="bat_x5F_moon" enable-background="new 0 0 300 300" height="512" viewBox="0 0 300 300" width="512" xmlns="http://www.w3.org/2000/svg"><g><circle cx="122" cy="122.838" fill="#edebdc" r="86"/><g><circle cx="170" cy="154.838" fill="#fff" r="90"/><path d="m170 248.838c-51.832 0-94-42.168-94-94s42.168-94 94-94 94 42.168 94 94-42.169 94-94 94zm0-180c-47.42 0-86 38.58-86 86s38.58 86 86 86 86-38.58 86-86-38.58-86-86-86z" fill="#4c241d"/></g><g><path d="m135.239 163.796-3.461-3.461c-5.467-5.467-14.331-5.467-19.798 0s-5.467 14.331 0 19.798l3.461 3.461c-12.384.973-58.073 8.023-69.453 59.232 0 0 19.798-23.097 46.195-3.3 0 0 23.097-23.097 42.895 3.3 0 0 16.498-29.697 46.195-13.199-16.498-29.697 13.198-46.195 13.198-46.195-26.397-19.798-3.3-42.895-3.3-42.895-19.798-26.397 3.3-46.195 3.3-46.195-51.209 11.381-58.26 57.07-59.232 69.454z" fill="#6b4f5b"/><path d="m45.987 246.826c-.606 0-1.217-.137-1.788-.422-1.642-.821-2.514-2.653-2.116-4.445 10.169-45.763 46.09-58.053 65.091-61.341-4.963-7.021-4.304-16.829 1.977-23.11 6.282-6.282 16.089-6.941 23.111-1.977 3.288-19.001 15.578-54.922 61.341-65.092 1.794-.398 3.625.474 4.445 2.116.821 1.642.419 3.631-.975 4.826-.813.706-19.946 17.767-2.703 40.758 1.194 1.592 1.036 3.821-.372 5.229-.082.083-8.917 9.145-8.132 19.783.458 6.203 4.16 11.951 11.003 17.083 1.084.813 1.683 2.121 1.591 3.473-.092 1.353-.863 2.566-2.048 3.224-1.058.595-25.961 14.986-11.645 40.756.867 1.561.595 3.508-.668 4.771-1.263 1.262-3.208 1.536-4.771.668-25.771-14.318-40.16 10.585-40.76 11.653-.663 1.179-1.878 1.947-3.227 2.036-1.35.088-2.654-.505-3.465-1.587-5.133-6.844-10.881-10.546-17.084-11.003-10.639-.778-19.701 8.051-19.791 8.14-1.409 1.395-3.635 1.553-5.221.364-23.133-17.35-40.049 1.876-40.757 2.703-.778.907-1.897 1.394-3.036 1.394zm67.451-20.654c.619 0 1.243.021 1.875.066 7.15.508 13.675 3.865 19.454 9.997 2.213-2.822 5.564-6.453 10.013-9.498 6.522-4.462 16.397-8.316 28.971-4.633-3.683-12.572.17-22.448 4.633-28.971 3.044-4.449 6.675-7.8 9.498-10.013-6.132-5.779-9.489-12.304-9.997-19.454-.742-10.441 4.919-19.218 8.215-23.381-10.618-16.028-7.133-29.807-2.244-38.63-37.78 14.334-43.713 50.797-44.628 62.453-.122 1.556-1.139 2.899-2.603 3.439-1.463.54-3.109.181-4.213-.924l-3.461-3.461c-3.898-3.899-10.242-3.899-14.141 0-3.898 3.898-3.898 10.242 0 14.141l3.461 3.461c1.104 1.104 1.464 2.749.924 4.213s-1.883 2.481-3.439 2.603c-11.655.915-48.119 6.85-62.453 44.629 8.825-4.889 22.602-8.374 38.63 2.244 3.91-3.096 11.895-8.281 21.505-8.281z" fill="#4c241d"/></g><g><path d="m134.57 163.059-15.957-15.956" fill="#fff"/><path d="m134.57 167.059c-1.024 0-2.047-.391-2.829-1.171l-15.956-15.956c-1.562-1.562-1.562-4.095 0-5.657s4.095-1.562 5.657 0l15.956 15.956c1.562 1.562 1.562 4.095 0 5.657-.781.78-1.804 1.171-2.828 1.171z" fill="#4c241d"/></g><g><path d="m114.772 182.857-15.956-15.956" fill="#fff"/><path d="m114.772 186.857c-1.024 0-2.047-.391-2.829-1.171l-15.956-15.957c-1.562-1.562-1.562-4.095 0-5.657 1.563-1.562 4.096-1.561 5.657 0l15.956 15.957c1.562 1.562 1.562 4.095 0 5.657-.781.78-1.805 1.171-2.828 1.171z" fill="#4c241d"/></g><g fill="#4c241d"><path d="m246.181 62.658c-1.024 0-2.047-.391-2.828-1.171-1.562-1.562-1.562-4.095 0-5.657l11.639-11.64c1.562-1.562 4.095-1.562 5.657 0s1.562 4.095 0 5.657l-11.639 11.64c-.782.78-1.806 1.171-2.829 1.171z"/><path d="m257.82 62.658c-1.024 0-2.047-.391-2.829-1.172l-11.639-11.64c-1.562-1.562-1.562-4.095 0-5.657s4.095-1.561 5.657 0l11.639 11.64c1.562 1.562 1.562 4.095 0 5.657-.781.781-1.805 1.172-2.828 1.172z"/><path d="m50.181 126.658c-1.024 0-2.047-.391-2.828-1.171-1.562-1.562-1.562-4.095 0-5.657l11.639-11.64c1.562-1.562 4.095-1.562 5.657 0s1.562 4.095 0 5.657l-11.639 11.64c-.782.78-1.806 1.171-2.829 1.171z"/><path d="m61.82 126.658c-1.024 0-2.047-.391-2.829-1.172l-11.639-11.64c-1.562-1.562-1.562-4.095 0-5.657s4.095-1.561 5.657 0l11.639 11.64c1.562 1.562 1.562 4.095 0 5.657-.781.781-1.805 1.172-2.828 1.172z"/><circle cx="50" cy="50.838" r="4.324"/><circle cx="250" cy="258.838" r="4.324"/><path d="m220 144.838c-2.209 0-4-1.791-4-4s1.791-4 4-4c4.411 0 8-3.589 8-8s-3.589-8-8-8-8 3.589-8 8c0 2.209-1.791 4-4 4s-4-1.791-4-4c0-8.822 7.178-16 16-16s16 7.178 16 16-7.178 16-16 16z"/><path d="m204 216.838c-2.209 0-4-1.791-4-4s1.791-4 4-4c2.206 0 4-1.794 4-4 0-2.209 1.791-4 4-4s4 1.791 4 4c0 6.617-5.383 12-12 12z"/><path d="m122.106 124.053c-.52 0-1.047-.102-1.556-.317-5.194-2.197-8.55-7.26-8.55-12.898 0-7.72 6.28-14 14-14s14 6.28 14 14c0 1.888-.371 3.722-1.102 5.451-.86 2.035-3.206 2.987-5.242 2.126-2.035-.86-2.986-3.207-2.126-5.242.312-.737.47-1.522.47-2.334 0-3.309-2.691-6-6-6s-6 2.691-6 6c0 2.417 1.439 4.588 3.666 5.53 2.035.86 2.986 3.208 2.126 5.242-.646 1.525-2.127 2.442-3.686 2.442z"/></g><circle cx="126" cy="166.838" fill="#f53e28" r="2"/><circle cx="118" cy="174.838" fill="#f53e28" r="2"/></g></svg>