<svg id="Capa_1" enable-background="new 0 0 512 512" height="512" viewBox="0 0 512 512" width="512" xmlns="http://www.w3.org/2000/svg"><g><path d="m498.737 195.88c0-15.717-21.556-38.775-45.492-57 4.038-29.812 2.976-61.36-8.137-72.473s-42.661-12.176-72.473-8.137c-18.225-23.936-41.284-45.492-57-45.492s-38.775 21.556-57 45.492c-29.812-4.038-61.36-2.976-72.473 8.137s-12.176 42.661-8.137 72.473c-23.936 18.225-45.492 41.284-45.492 57s21.556 38.775 45.492 57c-4.038 29.812-2.976 61.36 8.137 72.473s42.661 12.176 72.473 8.137c18.225 23.936 41.284 45.492 57 45.492s38.775-21.556 57-45.492c29.812 4.038 61.36 2.976 72.473-8.137s12.176-42.661 8.137-72.473c23.936-18.224 45.492-41.283 45.492-57z" fill="#eba188"/><circle cx="315.634" cy="195.88" fill="#f6ee86" r="117.212"/><path d="m387.841 288.214c-169.814 12.696-163.27-141.691-134.409-191.688-33.039 20.729-55.01 57.473-55.01 99.354 0 64.734 52.478 117.212 117.212 117.212 27.239 0 52.305-9.293 72.207-24.878z" fill="#efd176"/><g><g><ellipse cx="235.99" cy="214.952" fill="#eda1ab" rx="29.387" ry="23.403"/><ellipse cx="395.279" cy="214.952" fill="#eda1ab" rx="29.387" ry="23.403"/><path d="m339.328 196.971c0-14.643-10.608-16.019-23.694-16.019-13.085 0-23.694 1.376-23.694 16.019s10.608 26.513 23.694 26.513 23.694-11.87 23.694-26.513z" fill="#4e5660"/></g></g><path d="m141.268 372.481c-4.142.04-7.467 3.43-7.427 7.572l.609 62.998-46.387-67.171c-1.865-2.701-5.27-3.874-8.403-2.898-3.134.977-5.268 3.878-5.268 7.16v85.823c0 4.142 3.358 7.5 7.5 7.5s7.5-3.358 7.5-7.5v-61.765l44.358 64.233c2.333 3.37 6.175 4.817 9.783 3.691 3.712-1.16 6.111-4.715 6.111-9.13l-.803-83.086c-.042-4.243-3.568-7.497-7.573-7.427zm50.471 22.721c-4.142 0-7.5 3.358-7.5 7.5v85.984c0 4.142 3.358 7.5 7.5 7.5s7.5-3.358 7.5-7.5v-85.984c0-4.142-3.358-7.5-7.5-7.5zm-84.993-219.116c0-27.841-22.65-50.492-50.492-50.492s-50.492 22.65-50.492 50.492 22.65 50.492 50.492 50.492 50.492-22.65 50.492-50.492zm-85.984 0c0-19.57 15.921-35.492 35.492-35.492s35.492 15.921 35.492 35.492-15.921 35.492-35.492 35.492-35.492-15.921-35.492-35.492zm16.546-75.893c4.07.736 7.977-1.972 8.713-6.049l10.943-60.632 17.929 60.77c.026.088.054.176.083.264 1.294 3.856 4.887 6.438 8.951 6.438h.047c4.083-.021 7.673-2.643 8.934-6.527.028-.086.055-.173.08-.26l17.313-60.733 11.611 60.755c.778 4.069 4.708 6.738 8.774 5.959 4.069-.777 6.736-4.706 5.959-8.774l-16.024-83.847c-.855-4.199-4.441-7.301-8.719-7.543-4.279-.237-8.191 2.436-9.514 6.512-.028.086-.054.172-.079.259l-18.472 64.8-19.142-64.879c-.026-.089-.054-.177-.083-.265-1.365-4.064-5.297-6.705-9.584-6.415-4.277.287-7.83 3.428-8.655 7.722l-15.113 83.732c-.736 4.076 1.972 7.977 6.048 8.713zm162.14 224.273c-3.557-1.223-6.317-2.75-7.983-4.415-7.886-7.887-10.301-34.476-6.008-66.163.362-2.675-.741-5.339-2.889-6.974-25.442-19.372-42.536-39.88-42.536-51.033s17.094-31.661 42.536-51.033c2.148-1.636 3.251-4.299 2.889-6.974-4.292-31.687-1.878-58.277 6.008-66.163s34.476-10.301 66.163-6.008c2.675.361 5.338-.741 6.974-2.889 19.371-25.442 39.879-42.536 51.033-42.536 11.153 0 31.661 17.094 51.033 42.536 1.636 2.147 4.296 3.248 6.974 2.889 16.401-2.222 32.124-2.686 44.274-1.303 4.111.467 7.831-2.489 8.3-6.604.468-4.116-2.489-7.831-6.604-8.3-12.253-1.393-27.62-1.106-43.672.795-12.495-15.846-38.467-45.013-60.304-45.013-21.84 0-47.812 29.168-60.305 45.013-20.038-2.368-59.028-4.63-74.472 10.813-15.443 15.443-13.183 54.433-10.813 74.472-15.845 12.494-45.014 38.466-45.014 60.305s29.168 47.811 45.013 60.305c-2.37 20.039-4.63 59.029 10.813 74.472 3.315 3.315 7.929 6.005 13.711 7.994 3.941 1.355 8.192-.76 9.531-4.653 1.348-3.919-.736-8.186-4.652-9.533zm-98.926 24.209c3.109-2.736 3.412-7.476.675-10.585l-25.569-29.051c15.429-1.749 27.439-14.367 27.439-29.631 0-16.457-13.956-29.846-31.111-29.846h-22.849c-.005 0-.009.001-.014.001s-.009-.001-.014-.001c-4.142 0-7.5 3.358-7.5 7.5v85.984c0 4.142 3.358 7.5 7.5 7.5s7.5-3.358 7.5-7.5v-32.946l33.358 37.9c2.739 3.113 7.48 3.408 10.585.675zm-43.943-54.364v-29.75h15.377c8.733 0 16.111 6.799 16.111 14.846s-7.378 14.846-16.111 14.846c-3.523 0-10.174.031-15.377.058zm368.543 142.894h-25.722c-4.142 0-7.5 3.358-7.5 7.5s3.358 7.5 7.5 7.5h17.743c-2.753 20.497-16.867 27.992-29.134 27.992-19.57 0-35.492-15.921-35.492-35.492 0-19.57 15.921-35.492 35.492-35.492 7.114 0 13.974 2.094 19.838 6.057 3.432 2.319 8.094 1.417 10.413-2.016 2.319-3.432 1.417-8.094-2.016-10.413-8.354-5.645-18.118-8.628-28.236-8.628-27.841 0-50.492 22.65-50.492 50.492 0 27.841 22.65 50.492 50.492 50.492 26.267 0 44.613-20.763 44.613-50.492.001-4.142-3.357-7.5-7.499-7.5zm45.912 40.432c-4.144 0-7.503 3.359-7.503 7.504s3.359 7.504 7.503 7.504 7.504-3.359 7.504-7.504-3.36-7.504-7.504-7.504zm.109-126.514c-4.142 0-7.5 3.358-7.5 7.5v96.063c0 4.142 3.358 7.5 7.5 7.5s7.5-3.358 7.5-7.5v-96.063c0-4.143-3.358-7.5-7.5-7.5zm-167.899 59.893c-.024 0-.049 0-.074.001-4.142.04-7.467 3.43-7.427 7.572l.609 62.999-46.388-67.172c-1.865-2.701-5.271-3.874-8.403-2.898-3.134.977-5.268 3.878-5.268 7.16v85.822c0 4.142 3.358 7.5 7.5 7.5s7.5-3.358 7.5-7.5v-61.764l44.359 64.235c2.333 3.369 6.175 4.819 9.783 3.69 3.712-1.16 6.111-4.715 6.11-9.13l-.803-83.086c-.039-4.119-3.389-7.429-7.498-7.429zm-62.341-243.504c-4.142 0-7.5 3.358-7.5 7.5v12c0 4.142 3.358 7.5 7.5 7.5s7.5-3.358 7.5-7.5v-12c0-4.142-3.358-7.5-7.5-7.5zm220.319-31.938c1.954-16.606 4.059-48.513-5.393-66.862-1.897-3.682-6.419-5.131-10.102-3.233-3.683 1.896-5.13 6.419-3.233 10.102 5.741 11.146 7.013 35.016 3.318 62.293-.362 2.675.741 5.339 2.889 6.974 25.442 19.372 42.536 39.88 42.536 51.033s-17.094 31.661-42.536 51.033c-2.148 1.635-3.251 4.299-2.889 6.974 4.292 31.688 1.878 58.277-6.008 66.163s-34.476 10.3-66.163 6.008c-2.676-.362-5.338.741-6.974 2.889-19.372 25.442-39.88 42.536-51.033 42.536s-31.662-17.094-51.033-42.536c-1.636-2.148-4.297-3.249-6.974-2.889-8.751 1.185-17.253 1.874-25.27 2.046-4.141.089-7.426 3.518-7.337 7.659s3.492 7.412 7.66 7.337c7.251-.156 14.852-.703 22.651-1.63 12.495 15.846 38.465 45.012 60.304 45.012s47.811-29.169 60.305-45.014c20.042 2.372 59.03 4.63 74.472-10.813 15.443-15.443 13.183-54.433 10.813-74.472 15.845-12.494 45.014-38.466 45.014-60.305-.002-21.837-29.172-47.811-45.017-60.305zm-125.442 41.208c-5.448-2.763-11.994-3.329-20.146-3.329s-14.697.566-20.146 3.329c-5.04 2.556-11.048 8.133-11.048 20.189 0 18.755 13.993 34.013 31.193 34.013s31.193-15.258 31.193-34.013c.002-12.056-6.006-17.634-11.046-20.189zm-20.145 39.202c-8.929 0-16.193-8.529-16.193-19.013 0-5.907.655-8.519 16.193-8.519 15.539 0 16.193 2.611 16.193 8.519 0 10.484-7.264 19.013-16.193 19.013zm67.231-40.972v12c0 4.142 3.358 7.5 7.5 7.5s7.5-3.358 7.5-7.5v-12c0-4.142-3.358-7.5-7.5-7.5s-7.5 3.358-7.5 7.5zm-67.231-103.844c-68.767 0-124.712 55.945-124.712 124.712s55.945 124.712 124.712 124.712 124.712-55.945 124.712-124.712-55.946-124.712-124.712-124.712zm0 234.424c-60.495 0-109.712-49.217-109.712-109.712s49.217-109.712 109.712-109.712 109.712 49.217 109.712 109.712c-.001 60.496-49.217 109.712-109.712 109.712z"/></g></svg>