<svg height="368pt" viewBox="0 -16 368 368" width="368pt" xmlns="http://www.w3.org/2000/svg"><path d="m8 104h352v224h-352zm0 0" fill="#ebebeb"/><path d="m40 168h144v128h-144zm0 0" fill="#6cbae5"/><g fill="#dbdbdb"><path d="m224 240h112v16h-112zm0 0"/><path d="m224 192h112v16h-112zm0 0"/><path d="m320 288h16v16h-16zm0 0"/><path d="m288 288h16v16h-16zm0 0"/><path d="m256 288h16v16h-16zm0 0"/><path d="m224 288h16v16h-16zm0 0"/></g><path d="m72 296h80c-.007812-18.289062-10.292969-35.023438-26.609375-43.289062 12.457031-6.210938 19-20.175782 15.808594-33.722657-3.191407-13.546875-15.28125-23.121093-29.199219-23.121093s-26.007812 9.574218-29.199219 23.121093c-3.191406 13.546875 3.351563 27.511719 15.808594 33.722657-16.316406 8.265624-26.601563 25-26.609375 43.289062zm0 0" fill="#428dc5"/><path d="m136 128h96v16h-96zm0 0" fill="#dbdbdb"/><path d="m160 8h48v72h-48zm0 0" fill="#e06661"/><path d="m208 144h-48v-64c0-13.253906 10.746094-24 24-24s24 10.746094 24 24zm0 0" fill="#fbb540"/><path d="m368 328v-224c0-4.417969-3.582031-8-8-8h-144v-88c0-4.417969-3.582031-8-8-8h-48c-4.417969 0-8 3.582031-8 8v88h-144c-4.417969 0-8 3.582031-8 8v224c0 4.417969 3.582031 8 8 8h352c4.417969 0 8-3.582031 8-8zm-168-312v36.449219c-9.84375-5.933594-22.15625-5.933594-32 0v-36.449219zm-16 48c8.835938 0 16 7.164062 16 16v48h-32v-48c0-8.835938 7.164062-16 16-16zm168 256h-336v-208h136v16h-16v16h96v-16h-16v-16h136zm0 0"/><path d="m184 160h-144c-4.417969 0-8 3.582031-8 8v128c0 4.417969 3.582031 8 8 8h144c4.417969 0 8-3.582031 8-8v-128c0-4.417969-3.582031-8-8-8zm-103.199219 128c2.421875-12.183594 10.332031-22.570312 21.429688-28.152344 2.695312-1.359375 4.394531-4.121094 4.394531-7.140625 0-3.015625-1.699219-5.777343-4.394531-7.140625-9.140625-4.546875-13.953125-14.789062-11.613281-24.730468 2.335937-9.9375 11.203124-16.964844 21.414062-16.964844s19.082031 7.027344 21.417969 16.964844c2.335937 9.941406-2.476563 20.183593-11.617188 24.730468-2.695312 1.363282-4.390625 4.125-4.390625 7.140625 0 3.019531 1.695313 5.78125 4.390625 7.140625 11.074219 5.59375 18.957031 15.980469 21.367188 28.152344zm95.199219 0h-16.625c-1.929688-13.996094-9.074219-26.746094-20-35.703125 6.839844-7.042969 10.652344-16.480469 10.625-26.296875 0-20.988281-17.011719-38-38-38s-38 17.011719-38 38c-.015625 9.820312 3.8125 19.261719 10.664062 26.296875-10.941406 8.949219-18.097656 21.703125-20.039062 35.703125h-16.625v-112h128zm0 0"/><path d="m224 240h112v16h-112zm0 0"/><path d="m224 192h112v16h-112zm0 0"/><path d="m320 288h16v16h-16zm0 0"/><path d="m288 288h16v16h-16zm0 0"/><path d="m256 288h16v16h-16zm0 0"/><path d="m224 288h16v16h-16zm0 0"/></svg>