<?xml version="1.0" encoding="iso-8859-1"?>
<!-- Generator: Adobe Illustrator 19.0.0, SVG Export Plug-In . SVG Version: 6.00 Build 0)  -->
<svg version="1.1" id="Capa_1" xmlns="http://www.w3.org/2000/svg" xmlns:xlink="http://www.w3.org/1999/xlink" x="0px" y="0px"
	 viewBox="0 0 426.667 426.667" style="enable-background:new 0 0 426.667 426.667;" xml:space="preserve">
<rect x="19.14" y="155.569" style="fill:#F6C358;" width="389.077" height="243.883"/>
<rect x="368.811" y="195.224" style="fill:#2D93BA;" width="23.211" height="40.243"/>
<polygon style="fill:#27A2DB;" points="368.812,235.466 368.812,195.225 392.024,195.225 "/>
<rect x="368.811" y="258.225" style="fill:#2D93BA;" width="23.211" height="40.243"/>
<polygon style="fill:#27A2DB;" points="368.812,298.458 368.812,258.216 392.024,258.216 "/>
<rect x="368.811" y="321.201" style="fill:#2D93BA;" width="23.211" height="40.243"/>
<polygon style="fill:#27A2DB;" points="368.812,361.449 368.812,321.207 392.024,321.207 "/>
<rect x="330.581" y="195.224" style="fill:#2D93BA;" width="23.211" height="40.243"/>
<polygon style="fill:#27A2DB;" points="330.596,235.466 330.596,195.225 353.809,195.225 "/>
<rect x="330.581" y="258.225" style="fill:#2D93BA;" width="23.211" height="40.243"/>
<polygon style="fill:#27A2DB;" points="330.596,298.458 330.596,258.216 353.809,258.216 "/>
<rect x="330.581" y="321.201" style="fill:#2D93BA;" width="23.211" height="40.243"/>
<polygon style="fill:#27A2DB;" points="330.596,361.449 330.596,321.207 353.809,321.207 "/>
<rect x="292.395" y="195.224" style="fill:#2D93BA;" width="23.211" height="40.243"/>
<polygon style="fill:#27A2DB;" points="292.38,235.466 292.38,195.225 315.593,195.225 "/>
<rect x="292.395" y="258.225" style="fill:#2D93BA;" width="23.211" height="40.243"/>
<polygon style="fill:#27A2DB;" points="292.38,298.458 292.38,258.216 315.593,258.216 "/>
<rect x="292.395" y="321.201" style="fill:#2D93BA;" width="23.211" height="40.243"/>
<polygon style="fill:#27A2DB;" points="292.38,361.449 292.38,321.207 315.593,321.207 "/>
<polygon style="fill:#64798A;" points="349.233,82.622 78.133,82.622 19.141,155.556 408.225,155.556 "/>
<path style="fill:#44C4A1;" d="M285.038,70.127c0,0-17.118-29.529-47.931-11.555c-8.904,5.194-6.419-7.555-20.542,3.498V11.069
	c0,0,1.255,18.872,31.241,4.708c8.541-4.034,21.398-8.559,37.232-2.14C285.038,13.637,299.16,34.178,285.038,70.127z"/>
<rect x="207.889" y="11.07" style="fill:#DC8744;" width="10.27" height="95.006"/>
<polygon style="fill:#FCD462;" points="273.794,133.465 273.794,399.424 152.254,399.424 152.254,133.465 152.254,125.761 
	213.024,87.846 273.794,125.761 "/>
<circle style="fill:#FFFFFF;" cx="212.463" cy="157.229" r="41.476"/>
<path style="fill:#3A556A;" d="M212.463,201.477c-24.4,0-44.25-19.85-44.25-44.249s19.85-44.249,44.25-44.249
	c24.398,0,44.248,19.85,44.248,44.249S236.861,201.477,212.463,201.477z M212.463,118.522c-21.344,0-38.707,17.363-38.707,38.706
	s17.363,38.706,38.707,38.706c21.342,0,38.705-17.363,38.705-38.706S233.805,118.522,212.463,118.522z"/>
<g>
	<path style="fill:#2F4859;" d="M207.133,122.384h2.896v7.973h-1.277v-6.775h-1.618V122.384z"/>
	<path style="fill:#2F4859;" d="M215.379,125.498c0.228-0.312,0.343-0.628,0.343-0.947c0-0.32-0.123-0.592-0.366-0.816
		c-0.242-0.225-0.55-0.337-0.922-0.337c-0.655,0-1.199,0.335-1.631,1.004l-1.084-0.628c0.349-0.524,0.735-0.92,1.158-1.186
		c0.421-0.266,0.965-0.4,1.631-0.4c0.665,0,1.249,0.211,1.75,0.633c0.501,0.422,0.753,0.998,0.753,1.728
		c0,0.41-0.107,0.802-0.319,1.175c-0.214,0.372-0.605,0.852-1.175,1.437l-1.87,1.905h3.616v1.288h-5.453v-1.141l2.418-2.429
		C214.766,126.239,215.151,125.809,215.379,125.498z"/>
	<path style="fill:#2F4859;" d="M180.272,160.114c0.707,0,1.227-0.24,1.562-0.718c0.335-0.479,0.506-1.126,0.514-1.939
		c-0.19,0.213-0.464,0.412-0.822,0.599c-0.357,0.186-0.753,0.28-1.186,0.28c-0.715,0-1.314-0.238-1.796-0.713
		c-0.482-0.475-0.724-1.106-0.724-1.893c0-0.786,0.261-1.42,0.781-1.899c0.522-0.479,1.177-0.718,1.969-0.718
		c1.278,0,2.159,0.57,2.646,1.71c0.273,0.654,0.41,1.391,0.41,2.213c0,0.821-0.088,1.505-0.262,2.053s-0.415,0.98-0.718,1.3
		c-0.594,0.623-1.321,0.935-2.184,0.935c-0.864,0-1.645-0.269-2.344-0.81l0.673-0.992c0.174,0.152,0.409,0.289,0.702,0.411
		C179.784,160.053,180.045,160.114,180.272,160.114z M180.518,157.149c0.46,0,0.844-0.127,1.152-0.383
		c0.308-0.255,0.462-0.585,0.462-0.992c0-0.406-0.148-0.757-0.445-1.049c-0.297-0.293-0.668-0.439-1.113-0.439
		c-0.445,0-0.811,0.131-1.1,0.394s-0.434,0.599-0.434,1.009c0,0.411,0.13,0.757,0.393,1.039S180.057,157.149,180.518,157.149z"/>
	<path style="fill:#2F4859;" d="M212.996,185.729c-0.707,0-1.229,0.24-1.563,0.719c-0.335,0.479-0.506,1.125-0.512,1.939
		c0.189-0.213,0.464-0.412,0.82-0.599c0.358-0.186,0.753-0.28,1.186-0.28c0.715,0,1.314,0.238,1.796,0.713
		c0.484,0.475,0.724,1.107,0.724,1.893c0,0.787-0.261,1.42-0.781,1.9c-0.522,0.478-1.177,0.718-1.967,0.718
		c-1.277,0-2.161-0.57-2.646-1.71c-0.273-0.654-0.41-1.392-0.41-2.213c0-0.821,0.086-1.505,0.261-2.053
		c0.176-0.548,0.415-0.981,0.72-1.3c0.592-0.624,1.322-0.935,2.184-0.935c0.863,0,1.644,0.269,2.344,0.809l-0.674,0.992
		c-0.174-0.152-0.409-0.288-0.701-0.41C213.483,185.79,213.223,185.729,212.996,185.729z M212.75,188.695
		c-0.46,0-0.845,0.127-1.153,0.382c-0.308,0.255-0.462,0.586-0.462,0.992c0,0.407,0.149,0.757,0.446,1.05
		c0.295,0.293,0.668,0.439,1.117,0.439c0.448,0,0.822-0.131,1.117-0.394c0.297-0.262,0.445-0.597,0.445-1.004
		c0-0.406-0.137-0.753-0.41-1.038C213.577,188.837,213.209,188.695,212.75,188.695z"/>
	<path style="fill:#2F4859;" d="M241.862,156.305v-1.198h4.665v1.05l-1.928,2.156c0.731,0.023,1.301,0.253,1.711,0.69
		c0.41,0.438,0.616,0.96,0.616,1.568c0,0.814-0.277,1.453-0.827,1.916c-0.552,0.464-1.262,0.696-2.128,0.696
		c-0.867,0-1.716-0.278-2.544-0.833l0.57-1.083c0.654,0.456,1.339,0.684,2.054,0.684c0.464,0,0.845-0.108,1.145-0.325
		c0.3-0.217,0.451-0.529,0.451-0.935c0-0.407-0.168-0.732-0.503-0.976c-0.335-0.243-0.798-0.365-1.391-0.365
		c-0.297,0-0.581,0.042-0.856,0.125v-1.026l1.848-2.144H241.862z"/>
	<rect x="212.753" y="137.436" style="fill:#2F4859;" width="1.702" height="21.547"/>
	<rect x="196.22" y="158.087" style="fill:#2F4859;" width="15.68" height="1.847"/>
</g>
<rect x="218.719" y="146.538" transform="matrix(-0.751 0.6603 -0.6603 -0.751 492.8468 144.0798)" style="fill:#E56353;" width="1.071" height="36.872"/>
<circle style="fill:#27A2DB;" cx="213.547" cy="158.983" r="2.773"/>
<rect y="399.409" style="fill:#3A556A;" width="426.667" height="16.832"/>
<rect x="187.635" y="321.372" style="fill:#FFFFFF;" width="50.773" height="78.067"/>
<rect x="113.562" y="195.224" style="fill:#2D93BA;" width="23.211" height="40.243"/>
<polygon style="fill:#27A2DB;" points="113.562,235.466 113.562,195.225 136.775,195.225 "/>
<rect x="113.562" y="258.225" style="fill:#2D93BA;" width="23.211" height="40.243"/>
<polygon style="fill:#27A2DB;" points="113.562,298.458 113.562,258.216 136.775,258.216 "/>
<rect x="113.562" y="321.201" style="fill:#2D93BA;" width="23.211" height="40.243"/>
<polygon style="fill:#27A2DB;" points="113.562,361.449 113.562,321.207 136.775,321.207 "/>
<rect x="75.345" y="195.224" style="fill:#2D93BA;" width="23.211" height="40.243"/>
<polygon style="fill:#27A2DB;" points="75.347,235.466 75.347,195.225 98.559,195.225 "/>
<rect x="75.345" y="258.225" style="fill:#2D93BA;" width="23.211" height="40.243"/>
<polygon style="fill:#27A2DB;" points="75.347,298.458 75.347,258.216 98.559,258.216 "/>
<rect x="75.345" y="321.201" style="fill:#2D93BA;" width="23.211" height="40.243"/>
<polygon style="fill:#27A2DB;" points="75.347,361.449 75.347,321.207 98.559,321.207 "/>
<rect x="37.133" y="195.224" style="fill:#2D93BA;" width="23.211" height="40.243"/>
<polygon style="fill:#27A2DB;" points="37.131,235.466 37.131,195.225 60.343,195.225 "/>
<rect x="37.133" y="258.225" style="fill:#2D93BA;" width="23.211" height="40.243"/>
<polygon style="fill:#27A2DB;" points="37.131,298.458 37.131,258.216 60.343,258.216 "/>
<rect x="37.133" y="321.201" style="fill:#2D93BA;" width="23.211" height="40.243"/>
<polygon style="fill:#27A2DB;" points="37.131,361.449 37.131,321.207 60.343,321.207 "/>
<rect x="168.192" y="228.487" style="fill:#2D93BA;" width="34.799" height="30.302"/>
<polygon style="fill:#27A2DB;" points="168.213,258.786 168.213,228.483 203.01,228.483 "/>
<rect x="221.013" y="228.487" style="fill:#2D93BA;" width="34.799" height="30.302"/>
<polygon style="fill:#27A2DB;" points="221.012,258.786 221.012,228.483 255.809,228.483 "/>
<rect x="168.951" y="271.025" style="fill:#2D93BA;" width="34.799" height="30.302"/>
<polygon style="fill:#27A2DB;" points="168.953,301.32 168.953,271.016 203.75,271.016 "/>
<rect x="221.751" y="271.025" style="fill:#2D93BA;" width="34.799" height="30.302"/>
<polygon style="fill:#27A2DB;" points="221.752,301.32 221.752,271.016 256.549,271.016 "/>
<g>
</g>
<g>
</g>
<g>
</g>
<g>
</g>
<g>
</g>
<g>
</g>
<g>
</g>
<g>
</g>
<g>
</g>
<g>
</g>
<g>
</g>
<g>
</g>
<g>
</g>
<g>
</g>
<g>
</g>
</svg>
